<svg version="1.1" xmlns="http://www.w3.org/2000/svg" xmlns:xlink="http://www.w3.org/1999/xlink" width="1068.98388671875" height="653"><defs/><g><g transform="translate(-6,-6) scale(1,1)"><path fill="none" stroke="#4545cc" d="M 16 16 L 304 16 L 304 112 L 16 112 L 16 16" stroke-miterlimit="10"/></g><g transform="translate(-6,-6) scale(1,1)"><path fill="#333399" stroke="none" d="M 16 16 L 16 40 L 63.67724609375 40 L 75.67724609375 28 L 75.67724609375 16 L 16 16"/></g><g transform="translate(-6,-6) scale(1,1)"><path fill="none" stroke="#4545cc" d="M 16 16 L 16 40 L 63.67724609375 40 L 75.67724609375 28 L 75.67724609375 16 L 16 16 L 16 16" stroke-miterlimit="10"/></g><g transform="translate(-6,-6) scale(1,1)"><g><path fill="none" stroke="none"/><text fill="#ffffff" stroke="none" font-family="Arial" font-size="15px" font-style="normal" font-weight="normal" text-decoration="none" x="27" y="35.5">Start</text></g></g><g transform="translate(-6,-6) scale(1,1)"><g><path fill="none" stroke="none"/><text fill="#ffffff" stroke="none" font-family="Arial" font-size="15px" font-style="normal" font-weight="bold" text-decoration="none" x="21" y="35.5"></text></g></g><g transform="translate(-6,-6) scale(1,1)"><path fill="none" stroke="#4545cc" d="M 16 152 L 253.966796875 152 L 253.966796875 504 L 16 504 L 16 152" stroke-miterlimit="10"/></g><g transform="translate(-6,-6) scale(1,1)"><path fill="#333399" stroke="none" d="M 16 152 L 16 176 L 235.466796875 176 L 247.466796875 164 L 247.466796875 152 L 16 152"/></g><g transform="translate(-6,-6) scale(1,1)"><path fill="none" stroke="#4545cc" d="M 16 152 L 16 176 L 235.466796875 176 L 247.466796875 164 L 247.466796875 152 L 16 152 L 16 152" stroke-miterlimit="10"/></g><g transform="translate(-6,-6) scale(1,1)"><g><path fill="none" stroke="none"/><text fill="#ffffff" stroke="none" font-family="Arial" font-size="15px" font-style="normal" font-weight="normal" text-decoration="none" x="27" y="171.5">Pre-Launch and Ascent Phase</text></g></g><g transform="translate(-6,-6) scale(1,1)"><g><path fill="none" stroke="none"/><text fill="#ffffff" stroke="none" font-family="Arial" font-size="15px" font-style="normal" font-weight="bold" text-decoration="none" x="21" y="171.5"></text></g></g><g transform="translate(-6,-6) scale(1,1)"><path fill="none" stroke="#4545cc" d="M 288 152 L 536 152 L 536 552 L 288 552 L 288 152" stroke-miterlimit="10"/></g><g transform="translate(-6,-6) scale(1,1)"><path fill="#333399" stroke="none" d="M 288 152 L 288 176 L 487.427734375 176 L 499.427734375 164 L 499.427734375 152 L 288 152"/></g><g transform="translate(-6,-6) scale(1,1)"><path fill="none" stroke="#4545cc" d="M 288 152 L 288 176 L 487.427734375 176 L 499.427734375 164 L 499.427734375 152 L 288 152 L 288 152" stroke-miterlimit="10"/></g><g transform="translate(-6,-6) scale(1,1)"><g><path fill="none" stroke="none"/><text fill="#ffffff" stroke="none" font-family="Arial" font-size="15px" font-style="normal" font-weight="normal" text-decoration="none" x="299" y="171.5">High Profile Descent Phase</text></g></g><g transform="translate(-6,-6) scale(1,1)"><g><path fill="none" stroke="none"/><text fill="#ffffff" stroke="none" font-family="Arial" font-size="15px" font-style="normal" font-weight="bold" text-decoration="none" x="293" y="171.5"></text></g></g><g transform="translate(-6,-6) scale(1,1)"><path fill="none" stroke="#4545cc" d="M 568 152 L 760 152 L 760 424 L 568 424 L 568 152" stroke-miterlimit="10"/></g><g transform="translate(-6,-6) scale(1,1)"><path fill="#333399" stroke="none" d="M 568 152 L 568 176 L 690.70654296875 176 L 702.70654296875 164 L 702.70654296875 152 L 568 152"/></g><g transform="translate(-6,-6) scale(1,1)"><path fill="none" stroke="#4545cc" d="M 568 152 L 568 176 L 690.70654296875 176 L 702.70654296875 164 L 702.70654296875 152 L 568 152 L 568 152" stroke-miterlimit="10"/></g><g transform="translate(-6,-6) scale(1,1)"><g><path fill="none" stroke="none"/><text fill="#ffffff" stroke="none" font-family="Arial" font-size="15px" font-style="normal" font-weight="normal" text-decoration="none" x="579" y="171.5">Flight Transition</text></g></g><g transform="translate(-6,-6) scale(1,1)"><g><path fill="none" stroke="none"/><text fill="#ffffff" stroke="none" font-family="Arial" font-size="15px" font-style="normal" font-weight="bold" text-decoration="none" x="573" y="171.5"></text></g></g><g transform="translate(-6,-6) scale(1,1)"><path fill="none" stroke="#4545cc" d="M 792 152 L 1064.98388671875 152 L 1064.98388671875 544 L 792 544 L 792 152" stroke-miterlimit="10"/></g><g transform="translate(-6,-6) scale(1,1)"><path fill="#333399" stroke="none" d="M 792 152 L 792 176 L 1046.48388671875 176 L 1058.48388671875 164 L 1058.48388671875 152 L 792 152"/></g><g transform="translate(-6,-6) scale(1,1)"><path fill="none" stroke="#4545cc" d="M 792 152 L 792 176 L 1046.48388671875 176 L 1058.48388671875 164 L 1058.48388671875 152 L 792 152 L 792 152" stroke-miterlimit="10"/></g><g transform="translate(-6,-6) scale(1,1)"><g><path fill="none" stroke="none"/><text fill="#ffffff" stroke="none" font-family="Arial" font-size="15px" font-style="normal" font-weight="normal" text-decoration="none" x="803" y="171.5">Low Profile Descent and Landing P.</text></g></g><g transform="translate(-6,-6) scale(1,1)"><g><path fill="none" stroke="none"/><text fill="#ffffff" stroke="none" font-family="Arial" font-size="15px" font-style="normal" font-weight="bold" text-decoration="none" x="797" y="171.5"></text></g></g><g transform="translate(-6,-6) scale(1,1)"><path fill="none" stroke="#4545cc" d="M 568 440 L 760 440 L 760 640 L 568 640 L 568 440" stroke-miterlimit="10"/></g><g transform="translate(-6,-6) scale(1,1)"><path fill="#333399" stroke="none" d="M 568 440 L 568 464 L 696.55859375 464 L 708.55859375 452 L 708.55859375 440 L 568 440"/></g><g transform="translate(-6,-6) scale(1,1)"><path fill="none" stroke="#4545cc" d="M 568 440 L 568 464 L 696.55859375 464 L 708.55859375 452 L 708.55859375 440 L 568 440 L 568 440" stroke-miterlimit="10"/></g><g transform="translate(-6,-6) scale(1,1)"><g><path fill="none" stroke="none"/><text fill="#ffffff" stroke="none" font-family="Arial" font-size="15px" font-style="normal" font-weight="normal" text-decoration="none" x="579" y="459.5">Interrupt Handler</text></g></g><g transform="translate(-6,-6) scale(1,1)"><g><path fill="none" stroke="none"/><text fill="#ffffff" stroke="none" font-family="Arial" font-size="15px" font-style="normal" font-weight="bold" text-decoration="none" x="573" y="459.5"></text></g></g><g transform="translate(-6,-6) scale(1,1)"><path fill="#C0C0C0" stroke="none" d="M 47 72.5 C 47 67.2532944 51.2532944 63 56.5 63 C 61.7467056 63 66 67.2532944 66 72.5 C 66 77.7467056 61.7467056 82 56.5 82 C 51.2532944 82 47 77.7467056 47 72.5 Z" opacity="0.2"/></g><g transform="translate(-6,-6) scale(1,1)"><path fill="#000000" stroke="none" d="M 40 65.5 C 40 60.2532944 44.2532944 56 49.5 56 C 54.7467056 56 59 60.2532944 59 65.5 C 59 70.7467056 54.7467056 75 49.5 75 C 44.2532944 75 40 70.7467056 40 65.5 Z"/></g><g transform="translate(-6,-6) scale(1,1)"><path fill="#C0C0C0" stroke="none" d="M 95 47 L 191 47 L 191 95 L 95 95 L 107.25 71.5" opacity="0.2"/></g><g transform="translate(-6,-6) scale(1,1)"><path fill="#ffffff" stroke="none" d="M 88 40 L 184 40 L 184 88 L 88 88 L 100.25 64.5"/></g><g transform="translate(-6,-6) scale(1,1)"><path fill="none" stroke="#000000" d="M 88 40 L 184 40 L 184 88 L 88 88 L 100.25 64.5 L 88 40" stroke-miterlimit="10"/></g><g transform="translate(-6,-6) scale(1,1)"><g><path fill="none" stroke="none"/><text fill="#000000" stroke="none" font-family="Arial" font-size="15px" font-style="normal" font-weight="bold" text-decoration="none" x="105.56787109375" y="61.5">Read SD</text></g></g><g transform="translate(-6,-6) scale(1,1)"><path fill="none" stroke="#000000" d="M 60 65 L 87 65" stroke-miterlimit="10"/></g><g transform="translate(-6,-6) scale(1,1)"><path fill="none" stroke="#000000" d="M 76.83732514237585 69.20951775601598 L 87 65 L 76.83732514237585 60.790482243984016" stroke-miterlimit="10"/></g><g transform="translate(-6,-6) scale(1,1)"><path fill="#C0C0C0" stroke="none" d="M 247 72.5 L 271.5 55 L 295 72.5 L 271.5 89 L 247 72.5" opacity="0.2"/></g><g transform="translate(-6,-6) scale(1,1)"><path fill="#ffffff" stroke="none" d="M 240 65 L 264 48 L 288 65 L 264 82 L 240 65"/></g><g transform="translate(-6,-6) scale(1,1)"><path fill="none" stroke="#000000" d="M 240 65 L 264 48 L 288 65 L 264 82 L 240 65 L 240 65" stroke-miterlimit="10"/></g><g transform="translate(-6,-6) scale(1,1)"><path fill="none" stroke="#000000" d="M 184 65 L 240 65" stroke-miterlimit="10"/></g><g transform="translate(-6,-6) scale(1,1)"><path fill="none" stroke="#000000" d="M 229.83732514237585 69.20951775601598 L 240 65 L 229.83732514237585 60.790482243984016" stroke-miterlimit="10"/></g><g transform="translate(-6,-6) scale(1,1)"><path fill="#C0C0C0" stroke="none" d="M 457 47 L 580 47 Q 590 47 590 57 L 590 85 Q 590 95 580 95 L 457 95 Q 447 95 447 85 L 447 57 Q 447 47 457 47 Z" opacity="0.2"/></g><g transform="translate(-6,-6) scale(1,1)"><path fill="#a00000" stroke="none" d="M 450 40 L 573 40 Q 583 40 583 50 L 583 78 Q 583 88 573 88 L 450 88 Q 440 88 440 78 L 440 50 Q 440 40 450 40 Z"/></g><g transform="translate(-6,-6) scale(1,1)"><path fill="none" stroke="#000000" d="M 450 40 L 573 40 Q 583 40 583 50 L 583 78 Q 583 88 573 88 L 450 88 Q 440 88 440 78 L 440 50 Q 440 40 450 40 Z" stroke-miterlimit="10"/></g><g transform="translate(-6,-6) scale(1,1)"><g><path fill="none" stroke="none"/><text fill="#ffffff" stroke="none" font-family="Arial" font-size="15px" font-style="normal" font-weight="bold" text-decoration="none" x="450.23291015625" y="61.5">Disaster Recovery</text></g></g><g transform="translate(-6,-6) scale(1,1)"><path fill="none" stroke="#000000" d="M 288 64 L 440 64" stroke-miterlimit="10"/></g><g transform="translate(-6,-6) scale(1,1)"><path fill="none" stroke="#000000" d="M 429.83732514237585 68.20951775601598 L 440 64 L 429.83732514237585 59.790482243984016" stroke-miterlimit="10"/></g><g transform="translate(-6,-6) scale(1,1)"><g><path fill="none" stroke="none"/><text fill="#000000" stroke="none" font-family="Arial" font-size="15px" font-style="normal" font-weight="normal" text-decoration="none" x="348.5" y="56.5">Data</text></g></g><g transform="translate(-6,-6) scale(1,1)"><path fill="#ffffff" stroke="none" d="M 86 352 L 122 352 L 86 388 L 122 388 L 86 352"/></g><g transform="translate(-6,-6) scale(1,1)"><path fill="none" stroke="#000000" d="M 86 352 L 122 352 L 86 388 L 122 388 L 86 352 L 86 352" stroke-miterlimit="10"/></g><g transform="translate(-6,-6) scale(1,1)"><g><path fill="none" stroke="none"/><text fill="#000000" stroke="none" font-family="Arial" font-size="15px" font-style="normal" font-weight="bold" text-decoration="none" x="86.073974609375" y="409.5">1 sec</text></g></g><g transform="translate(-6,-6) scale(1,1)"><path fill="#C0C0C0" stroke="none" d="M 55 207 L 167 207 L 167 254 L 55 254 L 67 231" opacity="0.2"/></g><g transform="translate(-6,-6) scale(1,1)"><path fill="#ffffff" stroke="none" d="M 48 200 L 160 200 L 160 247 L 48 247 L 60 224"/></g><g transform="translate(-6,-6) scale(1,1)"><path fill="none" stroke="#000000" d="M 48 200 L 160 200 L 160 247 L 48 247 L 60 224 L 48 200" stroke-miterlimit="10"/></g><g transform="translate(-6,-6) scale(1,1)"><g><path fill="none" stroke="none"/><text fill="#000000" stroke="none" font-family="Arial" font-size="15px" font-style="normal" font-weight="bold" text-decoration="none" x="75.23046875" y="221.5">Get data</text></g></g><g transform="translate(-6,-6) scale(1,1)"><path fill="#C0C0C0" stroke="none" d="M 55 279 L 55 336 L 152.5 336 L 167 308 L 152.5 279" opacity="0.2"/></g><g transform="translate(-6,-6) scale(1,1)"><path fill="#ffffff" stroke="none" d="M 48 272 L 48 329 L 145.5 329 L 160 301 L 145.5 272"/></g><g transform="translate(-6,-6) scale(1,1)"><path fill="none" stroke="#000000" d="M 48 272 L 48 329 L 145.5 329 L 160 301 L 145.5 272 L 48 272" stroke-miterlimit="10"/></g><g transform="translate(-6,-6) scale(1,1)"><g><path fill="none" stroke="none"/><text fill="#000000" stroke="none" font-family="Arial" font-size="15px" font-style="normal" font-weight="bold" text-decoration="none" x="61.464599609375" y="293.5">Send data to</text><text fill="#000000" stroke="none" font-family="Arial" font-size="15px" font-style="normal" font-weight="bold" text-decoration="none" x="78.984130859375" y="308.5">Ground</text></g></g><g transform="translate(-6,-6) scale(1,1)"><path fill="none" stroke="#000000" d="M 104 248 L 104 271" stroke-miterlimit="10"/></g><g transform="translate(-6,-6) scale(1,1)"><path fill="none" stroke="#000000" d="M 99.79048224398402 260.83732514237585 L 104 271 L 108.20951775601598 260.83732514237585" stroke-miterlimit="10"/></g><g transform="translate(-6,-6) scale(1,1)"><path fill="#C0C0C0" stroke="none" d="M 87 463.5 L 111.5 447 L 135 463.5 L 111.5 479 L 87 463.5" opacity="0.2"/></g><g transform="translate(-6,-6) scale(1,1)"><path fill="#ffffff" stroke="none" d="M 80 456 L 104 440 L 128 456 L 104 472 L 80 456"/></g><g transform="translate(-6,-6) scale(1,1)"><path fill="none" stroke="#000000" d="M 80 456 L 104 440 L 128 456 L 104 472 L 80 456 L 80 456" stroke-miterlimit="10"/></g><g transform="translate(-6,-6) scale(1,1)"><path fill="#ffffff" stroke="none" d="M 365.5 400 L 402.5 400 L 365.5 437 L 402.5 437 L 365.5 400"/></g><g transform="translate(-6,-6) scale(1,1)"><path fill="none" stroke="#000000" d="M 365.5 400 L 402.5 400 L 365.5 437 L 402.5 437 L 365.5 400 L 365.5 400" stroke-miterlimit="10"/></g><g transform="translate(-6,-6) scale(1,1)"><g><path fill="none" stroke="none"/><text fill="#000000" stroke="none" font-family="Arial" font-size="15px" font-style="normal" font-weight="bold" text-decoration="none" x="359.819091796875" y="458.5">0,1 sec</text></g></g><g transform="translate(-6,-6) scale(1,1)"><path fill="#ffffff" stroke="none" d="M 886 416 L 922 416 L 886 452 L 922 452 L 886 416"/></g><g transform="translate(-6,-6) scale(1,1)"><path fill="none" stroke="#000000" d="M 886 416 L 922 416 L 886 452 L 922 452 L 886 416 L 886 416" stroke-miterlimit="10"/></g><g transform="translate(-6,-6) scale(1,1)"><g><path fill="none" stroke="none"/><text fill="#000000" stroke="none" font-family="Arial" font-size="15px" font-style="normal" font-weight="bold" text-decoration="none" x="886.073974609375" y="473.5">1 sec</text></g></g><g transform="translate(-6,-6) scale(1,1)"><path fill="#C0C0C0" stroke="none" d="M 335 191 L 447 191 L 447 238 L 335 238 L 347 215" opacity="0.2"/></g><g transform="translate(-6,-6) scale(1,1)"><path fill="#ffffff" stroke="none" d="M 328 184 L 440 184 L 440 231 L 328 231 L 340 208"/></g><g transform="translate(-6,-6) scale(1,1)"><path fill="none" stroke="#000000" d="M 328 184 L 440 184 L 440 231 L 328 231 L 340 208 L 328 184" stroke-miterlimit="10"/></g><g transform="translate(-6,-6) scale(1,1)"><g><path fill="none" stroke="none"/><text fill="#000000" stroke="none" font-family="Arial" font-size="15px" font-style="normal" font-weight="bold" text-decoration="none" x="355.23046875" y="205.5">Get data</text></g></g><g transform="translate(-6,-6) scale(1,1)"><path fill="#C0C0C0" stroke="none" d="M 303 327 L 303 384 L 464.5 384 L 479 356 L 464.5 327" opacity="0.2"/></g><g transform="translate(-6,-6) scale(1,1)"><path fill="#ffffff" stroke="none" d="M 296 320 L 296 377 L 457.5 377 L 472 349 L 457.5 320"/></g><g transform="translate(-6,-6) scale(1,1)"><path fill="none" stroke="#000000" d="M 296 320 L 296 377 L 457.5 377 L 472 349 L 457.5 320 L 296 320" stroke-miterlimit="10"/></g><g transform="translate(-6,-6) scale(1,1)"><g><path fill="none" stroke="none"/><text fill="#000000" stroke="none" font-family="Arial" font-size="15px" font-style="normal" font-weight="bold" text-decoration="none" x="314.364990234375" y="341.5">Send data to Ground</text><text fill="#000000" stroke="none" font-family="Arial" font-size="15px" font-style="normal" font-weight="bold" text-decoration="none" x="332.31298828125" y="356.5">every 10 cycles</text></g></g><g transform="translate(-6,-6) scale(1,1)"><path fill="#C0C0C0" stroke="none" d="M 367 511.5 L 391.5 495 L 415 511.5 L 391.5 527 L 367 511.5" opacity="0.2"/></g><g transform="translate(-6,-6) scale(1,1)"><path fill="#ffffff" stroke="none" d="M 360 504 L 384 488 L 408 504 L 384 520 L 360 504"/></g><g transform="translate(-6,-6) scale(1,1)"><path fill="none" stroke="#000000" d="M 360 504 L 384 488 L 408 504 L 384 520 L 360 504 L 360 504" stroke-miterlimit="10"/></g><g transform="translate(-6,-6) scale(1,1)"><path fill="none" stroke="#000000" d="M 104 330 L 104 351" stroke-miterlimit="10"/></g><g transform="translate(-6,-6) scale(1,1)"><path fill="none" stroke="#000000" d="M 99.79048224398402 340.83732514237585 L 104 351 L 108.20951775601598 340.83732514237585" stroke-miterlimit="10"/></g><g transform="translate(-6,-6) scale(1,1)"><path fill="none" stroke="#000000" d="M 104 416 L 104 439" stroke-miterlimit="10"/></g><g transform="translate(-6,-6) scale(1,1)"><path fill="none" stroke="#000000" d="M 99.79048224398402 428.83732514237585 L 104 439 L 108.20951775601598 428.83732514237585" stroke-miterlimit="10"/></g><g transform="translate(-6,-6) scale(1,1)"><path fill="none" stroke="#000000" d="M 384 378 L 384 399" stroke-miterlimit="10"/></g><g transform="translate(-6,-6) scale(1,1)"><path fill="none" stroke="#000000" d="M 379.790482243984 388.83732514237585 L 384 399 L 388.209517756016 388.83732514237585" stroke-miterlimit="10"/></g><g transform="translate(-6,-6) scale(1,1)"><path fill="none" stroke="#000000" d="M 384 465 L 384 487" stroke-miterlimit="10"/></g><g transform="translate(-6,-6) scale(1,1)"><path fill="none" stroke="#000000" d="M 379.790482243984 476.83732514237585 L 384 487 L 388.209517756016 476.83732514237585" stroke-miterlimit="10"/></g><g transform="translate(-6,-6) scale(1,1)"><path fill="#C0C0C0" stroke="none" d="M 313 255 L 469 255 Q 479 255 479 265 L 479 292 Q 479 302 469 302 L 313 302 Q 303 302 303 292 L 303 265 Q 303 255 313 255 Z" opacity="0.2"/></g><g transform="translate(-6,-6) scale(1,1)"><path fill="#ffffff" stroke="none" d="M 306 248 L 462 248 Q 472 248 472 258 L 472 285 Q 472 295 462 295 L 306 295 Q 296 295 296 285 L 296 258 Q 296 248 306 248 Z"/></g><g transform="translate(-6,-6) scale(1,1)"><path fill="none" stroke="#000000" d="M 306 248 L 462 248 Q 472 248 472 258 L 472 285 Q 472 295 462 295 L 306 295 Q 296 295 296 285 L 296 258 Q 296 248 306 248 Z" stroke-miterlimit="10"/></g><g transform="translate(-6,-6) scale(1,1)"><g><path fill="none" stroke="none"/><text fill="#000000" stroke="none" font-family="Arial" font-size="15px" font-style="normal" font-weight="bold" text-decoration="none" x="308.542236328125" y="269.5">Use data for prediction</text></g></g><g transform="translate(-6,-6) scale(1,1)"><path fill="none" stroke="#000000" d="M 384 232 L 384 247" stroke-miterlimit="10"/></g><g transform="translate(-6,-6) scale(1,1)"><path fill="none" stroke="#000000" d="M 379.790482243984 236.83732514237585 L 384 247 L 388.209517756016 236.83732514237585" stroke-miterlimit="10"/></g><g transform="translate(-6,-6) scale(1,1)"><path fill="none" stroke="#000000" d="M 384 296 L 384 319" stroke-miterlimit="10"/></g><g transform="translate(-6,-6) scale(1,1)"><path fill="none" stroke="#000000" d="M 379.790482243984 308.83732514237585 L 384 319 L 388.209517756016 308.83732514237585" stroke-miterlimit="10"/></g><g transform="translate(-6,-6) scale(1,1)"><path fill="none" stroke="#000000" d="M 128 448 L 192 448 L 192 232 L 160 232" stroke-miterlimit="10"/></g><g transform="translate(-6,-6) scale(1,1)"><path fill="none" stroke="#000000" d="M 170.16267485762415 227.790482243984 L 160 232 L 170.16267485762415 236.209517756016" stroke-miterlimit="10"/></g><g transform="translate(-6,-6) scale(1,1)"><path fill="none" stroke="#000000" d="M 408 496 L 512 496 L 512 216 L 440 216" stroke-miterlimit="10"/></g><g transform="translate(-6,-6) scale(1,1)"><path fill="none" stroke="#000000" d="M 450.16267485762415 211.790482243984 L 440 216 L 450.16267485762415 220.209517756016" stroke-miterlimit="10"/></g><g transform="translate(-6,-6) scale(1,1)"><path fill="#C0C0C0" stroke="none" d="M 855 191 L 967 191 L 967 238 L 855 238 L 867 215" opacity="0.2"/></g><g transform="translate(-6,-6) scale(1,1)"><path fill="#ffffff" stroke="none" d="M 848 184 L 960 184 L 960 231 L 848 231 L 860 208"/></g><g transform="translate(-6,-6) scale(1,1)"><path fill="none" stroke="#000000" d="M 848 184 L 960 184 L 960 231 L 848 231 L 860 208 L 848 184" stroke-miterlimit="10"/></g><g transform="translate(-6,-6) scale(1,1)"><g><path fill="none" stroke="none"/><text fill="#000000" stroke="none" font-family="Arial" font-size="15px" font-style="normal" font-weight="bold" text-decoration="none" x="875.23046875" y="205.5">Get data</text></g></g><g transform="translate(-6,-6) scale(1,1)"><path fill="#C0C0C0" stroke="none" d="M 839 263 L 839 320 L 968.5 320 L 983 292 L 968.5 263" opacity="0.2"/></g><g transform="translate(-6,-6) scale(1,1)"><path fill="#ffffff" stroke="none" d="M 832 256 L 832 313 L 961.5 313 L 976 285 L 961.5 256"/></g><g transform="translate(-6,-6) scale(1,1)"><path fill="none" stroke="#000000" d="M 832 256 L 832 313 L 961.5 313 L 976 285 L 961.5 256 L 832 256" stroke-miterlimit="10"/></g><g transform="translate(-6,-6) scale(1,1)"><g><path fill="none" stroke="none"/><text fill="#000000" stroke="none" font-family="Arial" font-size="15px" font-style="normal" font-weight="bold" text-decoration="none" x="861.464599609375" y="277.5">Send data to</text><text fill="#000000" stroke="none" font-family="Arial" font-size="15px" font-style="normal" font-weight="bold" text-decoration="none" x="878.984130859375" y="292.5">Ground</text></g></g><g transform="translate(-6,-6) scale(1,1)"><path fill="#C0C0C0" stroke="none" d="M 887 527.5 L 911.5 511 L 935 527.5 L 911.5 543 L 887 527.5" opacity="0.2"/></g><g transform="translate(-6,-6) scale(1,1)"><path fill="#ffffff" stroke="none" d="M 880 520 L 904 504 L 928 520 L 904 536 L 880 520"/></g><g transform="translate(-6,-6) scale(1,1)"><path fill="none" stroke="#000000" d="M 880 520 L 904 504 L 928 520 L 904 536 L 880 520 L 880 520" stroke-miterlimit="10"/></g><g transform="translate(-6,-6) scale(1,1)"><path fill="#C0C0C0" stroke="none" d="M 841 343 L 981 343 Q 991 343 991 353 L 991 390 Q 991 400 981 400 L 841 400 Q 831 400 831 390 L 831 353 Q 831 343 841 343 Z" opacity="0.2"/></g><g transform="translate(-6,-6) scale(1,1)"><path fill="#ffffff" stroke="none" d="M 834 336 L 974 336 Q 984 336 984 346 L 984 383 Q 984 393 974 393 L 834 393 Q 824 393 824 383 L 824 346 Q 824 336 834 336 Z"/></g><g transform="translate(-6,-6) scale(1,1)"><path fill="none" stroke="#000000" d="M 834 336 L 974 336 Q 984 336 984 346 L 984 383 Q 984 393 974 393 L 834 393 Q 824 393 824 383 L 824 346 Q 824 336 834 336 Z" stroke-miterlimit="10"/></g><g transform="translate(-6,-6) scale(1,1)"><g><path fill="none" stroke="none"/><text fill="#000000" stroke="none" font-family="Arial" font-size="15px" font-style="normal" font-weight="bold" text-decoration="none" x="861.8857421875" y="357.5">If on ground,</text><text fill="#000000" stroke="none" font-family="Arial" font-size="15px" font-style="normal" font-weight="bold" text-decoration="none" x="853.55810546875" y="372.5">activate buzzer</text></g></g><g transform="translate(-6,-6) scale(1,1)"><path fill="none" stroke="#000000" d="M 904 232 L 904 255" stroke-miterlimit="10"/></g><g transform="translate(-6,-6) scale(1,1)"><path fill="none" stroke="#000000" d="M 899.790482243984 244.83732514237585 L 904 255 L 908.209517756016 244.83732514237585" stroke-miterlimit="10"/></g><g transform="translate(-6,-6) scale(1,1)"><path fill="none" stroke="#000000" d="M 904 314 L 904 335" stroke-miterlimit="10"/></g><g transform="translate(-6,-6) scale(1,1)"><path fill="none" stroke="#000000" d="M 899.790482243984 324.83732514237585 L 904 335 L 908.209517756016 324.83732514237585" stroke-miterlimit="10"/></g><g transform="translate(-6,-6) scale(1,1)"><path fill="none" stroke="#000000" d="M 904 394 L 904 415" stroke-miterlimit="10"/></g><g transform="translate(-6,-6) scale(1,1)"><path fill="none" stroke="#000000" d="M 899.790482243984 404.83732514237585 L 904 415 L 908.209517756016 404.83732514237585" stroke-miterlimit="10"/></g><g transform="translate(-6,-6) scale(1,1)"><path fill="none" stroke="#000000" d="M 904 480 L 904 503" stroke-miterlimit="10"/></g><g transform="translate(-6,-6) scale(1,1)"><path fill="none" stroke="#000000" d="M 899.790482243984 492.83732514237585 L 904 503 L 908.209517756016 492.83732514237585" stroke-miterlimit="10"/></g><g transform="translate(-6,-6) scale(1,1)"><path fill="none" stroke="#000000" d="M 928 512 L 1032 512 L 1032 208 L 960 208" stroke-miterlimit="10"/></g><g transform="translate(-6,-6) scale(1,1)"><path fill="none" stroke="#000000" d="M 970.1626748576241 203.790482243984 L 960 208 L 970.1626748576241 212.209517756016" stroke-miterlimit="10"/></g><g transform="translate(-6,-6) scale(1,1)"><path fill="#C0C0C0" stroke="none" d="M 601 207 L 741 207 Q 751 207 751 217 L 751 244 Q 751 254 741 254 L 601 254 Q 591 254 591 244 L 591 217 Q 591 207 601 207 Z" opacity="0.2"/></g><g transform="translate(-6,-6) scale(1,1)"><path fill="#ffffff" stroke="none" d="M 594 200 L 734 200 Q 744 200 744 210 L 744 237 Q 744 247 734 247 L 594 247 Q 584 247 584 237 L 584 210 Q 584 200 594 200 Z"/></g><g transform="translate(-6,-6) scale(1,1)"><path fill="none" stroke="#000000" d="M 594 200 L 734 200 Q 744 200 744 210 L 744 237 Q 744 247 734 247 L 594 247 Q 584 247 584 237 L 584 210 Q 584 200 594 200 Z" stroke-miterlimit="10"/></g><g transform="translate(-6,-6) scale(1,1)"><g><path fill="none" stroke="none"/><text fill="#000000" stroke="none" font-family="Arial" font-size="15px" font-style="normal" font-weight="bold" text-decoration="none" x="598.122314453125" y="221.5">Release heat shield</text></g></g><g transform="translate(-6,-6) scale(1,1)"><path fill="#C0C0C0" stroke="none" d="M 609 279 L 733 279 Q 743 279 743 289 L 743 316 Q 743 326 733 326 L 609 326 Q 599 326 599 316 L 599 289 Q 599 279 609 279 Z" opacity="0.2"/></g><g transform="translate(-6,-6) scale(1,1)"><path fill="#ffffff" stroke="none" d="M 602 272 L 726 272 Q 736 272 736 282 L 736 309 Q 736 319 726 319 L 602 319 Q 592 319 592 309 L 592 282 Q 592 272 602 272 Z"/></g><g transform="translate(-6,-6) scale(1,1)"><path fill="none" stroke="#000000" d="M 602 272 L 726 272 Q 736 272 736 282 L 736 309 Q 736 319 726 319 L 602 319 Q 592 319 592 309 L 592 282 Q 592 272 602 272 Z" stroke-miterlimit="10"/></g><g transform="translate(-6,-6) scale(1,1)"><g><path fill="none" stroke="none"/><text fill="#000000" stroke="none" font-family="Arial" font-size="15px" font-style="normal" font-weight="bold" text-decoration="none" x="605.212158203125" y="293.5">Deploy parachute</text></g></g><g transform="translate(-6,-6) scale(1,1)"><path fill="none" stroke="#000000" d="M 664 248 L 664 271" stroke-miterlimit="10"/></g><g transform="translate(-6,-6) scale(1,1)"><path fill="none" stroke="#000000" d="M 659.790482243984 260.83732514237585 L 664 271 L 668.209517756016 260.83732514237585" stroke-miterlimit="10"/></g><g transform="translate(-6,-6) scale(1,1)"><path fill="#C0C0C0" stroke="none" d="M 583 351 L 583 408 L 744.5 408 L 759 380 L 744.5 351" opacity="0.2"/></g><g transform="translate(-6,-6) scale(1,1)"><path fill="#ffffff" stroke="none" d="M 576 344 L 576 401 L 737.5 401 L 752 373 L 737.5 344"/></g><g transform="translate(-6,-6) scale(1,1)"><path fill="none" stroke="#000000" d="M 576 344 L 576 401 L 737.5 401 L 752 373 L 737.5 344 L 576 344" stroke-miterlimit="10"/></g><g transform="translate(-6,-6) scale(1,1)"><g><path fill="none" stroke="none"/><text fill="#000000" stroke="none" font-family="Arial" font-size="15px" font-style="normal" font-weight="bold" text-decoration="none" x="596.459716796875" y="365.5">Signal completion to</text><text fill="#000000" stroke="none" font-family="Arial" font-size="15px" font-style="normal" font-weight="bold" text-decoration="none" x="638.984130859375" y="380.5">Ground</text></g></g><g transform="translate(-6,-6) scale(1,1)"><path fill="none" stroke="#000000" d="M 664 320 L 664 343" stroke-miterlimit="10"/></g><g transform="translate(-6,-6) scale(1,1)"><path fill="none" stroke="#000000" d="M 659.790482243984 332.83732514237585 L 664 343 L 668.209517756016 332.83732514237585" stroke-miterlimit="10"/></g><g transform="translate(-6,-6) scale(1,1)"><path fill="none" stroke="#000000" d="M 128 464 L 280 464 L 280 208 L 328 208" stroke-miterlimit="10"/></g><g transform="translate(-6,-6) scale(1,1)"><path fill="none" stroke="#000000" d="M 317.83732514237585 212.209517756016 L 328 208 L 317.83732514237585 203.790482243984" stroke-miterlimit="10"/></g><g transform="translate(-6,-6) scale(1,1)"><g><path fill="none" stroke="none"/><text fill="#000000" stroke="none" font-family="Arial" font-size="15px" font-style="normal" font-weight="normal" text-decoration="none" x="150.93310546875" y="485.5">RelAlt &gt; 100</text><text fill="#000000" stroke="none" font-family="Arial" font-size="15px" font-style="normal" font-weight="normal" text-decoration="none" x="153.844482421875" y="500.5">Vspeed &gt; 0</text></g></g><g transform="translate(-6,-6) scale(1,1)"><path fill="none" stroke="#000000" d="M 408 512 L 552 512 L 552 224 L 584 224" stroke-miterlimit="10"/></g><g transform="translate(-6,-6) scale(1,1)"><path fill="none" stroke="#000000" d="M 573.8373251423759 228.209517756016 L 584 224 L 573.8373251423758 219.790482243984" stroke-miterlimit="10"/></g><g transform="translate(-6,-6) scale(1,1)"><g><path fill="none" stroke="none"/><text fill="#000000" stroke="none" font-family="Arial" font-size="15px" font-style="normal" font-weight="normal" text-decoration="none" x="391.3662109375" y="529.5">RelAlt &lt; 300 + prediction</text><text fill="#000000" stroke="none" font-family="Arial" font-size="15px" font-style="normal" font-weight="normal" text-decoration="none" x="433.2607421875" y="544.5">Vspeed  &lt; 0</text></g></g><g transform="translate(-6,-6) scale(1,1)"><path fill="none" stroke="#000000" d="M 752 369 L 776 369 L 776 216 L 848 216" stroke-miterlimit="10"/></g><g transform="translate(-6,-6) scale(1,1)"><path fill="none" stroke="#000000" d="M 837.8373251423759 220.209517756016 L 848 216 L 837.8373251423758 211.790482243984" stroke-miterlimit="10"/></g><g transform="translate(-6,-6) scale(1,1)"><path fill="none" stroke="#000000" d="M 264 82 L 264 216 L 160 216" stroke-miterlimit="10"/></g><g transform="translate(-6,-6) scale(1,1)"><path fill="none" stroke="#000000" d="M 170.16267485762415 211.790482243984 L 160 216 L 170.16267485762415 220.209517756016" stroke-miterlimit="10"/></g><g transform="translate(-6,-6) scale(1,1)"><path fill="#C0C0C0" stroke="none" d="M 495 136 L 519 119 L 542 136 L 519 152 L 495 136" opacity="0.2"/></g><g transform="translate(-6,-6) scale(1,1)"><path fill="#ffffff" stroke="none" d="M 488 128.5 L 511.5 112 L 535 128.5 L 511.5 145 L 488 128.5"/></g><g transform="translate(-6,-6) scale(1,1)"><path fill="none" stroke="#000000" d="M 488 128.5 L 511.5 112 L 535 128.5 L 511.5 145 L 488 128.5 L 488 128.5" stroke-miterlimit="10"/></g><g transform="translate(-6,-6) scale(1,1)"><path fill="none" stroke="#000000" d="M 511 89 L 511 111" stroke-miterlimit="10"/></g><g transform="translate(-6,-6) scale(1,1)"><path fill="none" stroke="#000000" d="M 506.790482243984 100.83732514237585 L 511 111 L 515.209517756016 100.83732514237585" stroke-miterlimit="10"/></g><g transform="translate(-6,-6) scale(1,1)"><path fill="none" stroke="#000000" d="M 488 128 L 272 128 L 272 224 L 160 224" stroke-miterlimit="10"/></g><g transform="translate(-6,-6) scale(1,1)"><path fill="none" stroke="#000000" d="M 170.16267485762415 219.790482243984 L 160 224 L 170.16267485762415 228.209517756016" stroke-miterlimit="10"/></g><g transform="translate(-6,-6) scale(1,1)"><path fill="none" stroke="#000000" d="M 512 145 L 512 200 L 440 200" stroke-miterlimit="10"/></g><g transform="translate(-6,-6) scale(1,1)"><path fill="none" stroke="#000000" d="M 450.16267485762415 195.790482243984 L 440 200 L 450.16267485762415 204.209517756016" stroke-miterlimit="10"/></g><g transform="translate(-6,-6) scale(1,1)"><path fill="none" stroke="#000000" d="M 535 128 L 776 128 L 776 200 L 848 200" stroke-miterlimit="10"/></g><g transform="translate(-6,-6) scale(1,1)"><path fill="none" stroke="#000000" d="M 837.8373251423759 204.209517756016 L 848 200 L 837.8373251423758 195.790482243984" stroke-miterlimit="10"/></g><g transform="translate(-6,-6) scale(1,1)"><path fill="#C0C0C0" stroke="none" d="M 633 479 L 749 479 Q 759 479 759 489 L 759 541 Q 759 551 749 551 L 633 551 Q 623 551 623 541 L 623 489 Q 623 479 633 479 Z" opacity="0.2"/></g><g transform="translate(-6,-6) scale(1,1)"><path fill="#ffffff" stroke="none" d="M 626 472 L 742 472 Q 752 472 752 482 L 752 534 Q 752 544 742 544 L 626 544 Q 616 544 616 534 L 616 482 Q 616 472 626 472 Z"/></g><g transform="translate(-6,-6) scale(1,1)"><path fill="none" stroke="#000000" d="M 626 472 L 742 472 Q 752 472 752 482 L 752 534 Q 752 544 742 544 L 626 544 Q 616 544 616 534 L 616 482 Q 616 472 626 472 Z" stroke-miterlimit="10"/></g><g transform="translate(-6,-6) scale(1,1)"><g><path fill="none" stroke="none"/><text fill="#000000" stroke="none" font-family="Arial" font-size="15px" font-style="normal" font-weight="bold" text-decoration="none" x="656.900390625" y="493.5">Execute</text><text fill="#000000" stroke="none" font-family="Arial" font-size="15px" font-style="normal" font-weight="bold" text-decoration="none" x="646.899169921875" y="508.5">emergency</text><text fill="#000000" stroke="none" font-family="Arial" font-size="15px" font-style="normal" font-weight="bold" text-decoration="none" x="661.06787109375" y="523.5">routine</text></g></g><g transform="translate(-6,-6) scale(1,1)"><path fill="#C0C0C0" stroke="none" d="M 623 567 L 623 639 L 740.75 639 L 759 603.5 L 740.75 567" opacity="0.2"/></g><g transform="translate(-6,-6) scale(1,1)"><path fill="#ffffff" stroke="none" d="M 616 560 L 616 632 L 733.75 632 L 752 596.5 L 733.75 560"/></g><g transform="translate(-6,-6) scale(1,1)"><path fill="none" stroke="#000000" d="M 616 560 L 616 632 L 733.75 632 L 752 596.5 L 733.75 560 L 616 560" stroke-miterlimit="10"/></g><g transform="translate(-6,-6) scale(1,1)"><g><path fill="none" stroke="none"/><text fill="#000000" stroke="none" font-family="Arial" font-size="15px" font-style="normal" font-weight="bold" text-decoration="none" x="663.151611328125" y="581.5">Signal</text><text fill="#000000" stroke="none" font-family="Arial" font-size="15px" font-style="normal" font-weight="bold" text-decoration="none" x="639.391845703125" y="596.5">completion to</text><text fill="#000000" stroke="none" font-family="Arial" font-size="15px" font-style="normal" font-weight="bold" text-decoration="none" x="658.984130859375" y="611.5">Ground</text></g></g><g transform="translate(-6,-6) scale(1,1)"><path fill="#C0C0C0" stroke="none" d="M 583 515 C 583 508.3725824 588.3725824 503 595 503 C 601.6274176 503 607 508.3725824 607 515 C 607 521.6274176 601.6274176 527 595 527 C 588.3725824 527 583 521.6274176 583 515 Z" opacity="0.2"/></g><g transform="translate(-6,-6) scale(1,1)"><path fill="#000000" stroke="none" d="M 576 508 C 576 501.3725824 581.3725824 496 588 496 C 594.6274176 496 600 501.3725824 600 508 C 600 514.6274176 594.6274176 520 588 520 C 581.3725824 520 576 514.6274176 576 508 Z"/></g><g transform="translate(-6,-6) scale(1,1)"><path fill="#C0C0C0" stroke="none" d="M 583 603.5 C 583 596.59644 588.59644 591 595.5 591 C 602.40356 591 608 596.59644 608 603.5 C 608 610.40356 602.40356 616 595.5 616 C 588.59644 616 583 610.40356 583 603.5 Z" opacity="0.2"/></g><g transform="translate(-6,-6) scale(1,1)"><path fill="#ffffff" stroke="none" d="M 576 596.5 C 576 589.59644 581.59644 584 588.5 584 C 595.40356 584 601 589.59644 601 596.5 C 601 603.40356 595.40356 609 588.5 609 C 581.59644 609 576 603.40356 576 596.5 Z"/></g><g transform="translate(-6,-6) scale(1,1)"><path fill="none" stroke="#000000" d="M 576 596.5 C 576 589.59644 581.59644 584 588.5 584 C 595.40356 584 601 589.59644 601 596.5 C 601 603.40356 595.40356 609 588.5 609 C 581.59644 609 576 603.40356 576 596.5 Z" stroke-miterlimit="10"/></g><g transform="translate(-6,-6) scale(1,1)"><path fill="none" stroke="#000000" d="M 579 587 L 597 605" stroke-miterlimit="10"/></g><g transform="translate(-6,-6) scale(1,1)"><path fill="none" stroke="#000000" d="M 597 587 L 579 605" stroke-miterlimit="10"/></g><g transform="translate(-6,-6) scale(1,1)"><path fill="none" stroke="#000000" d="M 601 508 L 615 508" stroke-miterlimit="10"/></g><g transform="translate(-6,-6) scale(1,1)"><path fill="none" stroke="#000000" d="M 604.8373251423759 512.209517756016 L 615 508 L 604.8373251423758 503.790482243984" stroke-miterlimit="10"/></g><g transform="translate(-6,-6) scale(1,1)"><path fill="none" stroke="#000000" d="M 684 545 L 684 559" stroke-miterlimit="10"/></g><g transform="translate(-6,-6) scale(1,1)"><path fill="none" stroke="#000000" d="M 679.790482243984 548.8373251423759 L 684 559 L 688.209517756016 548.8373251423759" stroke-miterlimit="10"/></g><g transform="translate(-6,-6) scale(1,1)"><path fill="none" stroke="#000000" d="M 615 596 L 602 596" stroke-miterlimit="10"/></g><g transform="translate(-6,-6) scale(1,1)"><path fill="none" stroke="#000000" d="M 612.1626748576241 591.790482243984 L 602 596 L 612.1626748576241 600.209517756016" stroke-miterlimit="10"/></g><g transform="translate(-6,-6) scale(1,1)"><path fill="#C0C0C0" stroke="none" d="M 49 551 L 173 551 Q 183 551 183 561 L 183 598 Q 183 608 173 608 L 49 608 Q 39 608 39 598 L 39 561 Q 39 551 49 551 Z" opacity="0.2"/></g><g transform="translate(-6,-6) scale(1,1)"><path fill="#ffc082" stroke="none" d="M 42 544 L 166 544 Q 176 544 176 554 L 176 591 Q 176 601 166 601 L 42 601 Q 32 601 32 591 L 32 554 Q 32 544 42 544 Z"/></g><g transform="translate(-6,-6) scale(1,1)"><path fill="none" stroke="#000000" d="M 42 544 L 166 544 Q 176 544 176 554 L 176 591 Q 176 601 166 601 L 42 601 Q 32 601 32 591 L 32 554 Q 32 544 42 544 Z" stroke-miterlimit="10"/></g><g transform="translate(-6,-6) scale(1,1)"><g><path fill="none" stroke="none"/><text fill="#000000" stroke="none" font-family="Arial" font-size="15px" font-style="normal" font-weight="bold" text-decoration="none" x="41.04833984375" y="565.5">Handle emergency</text><text fill="#000000" stroke="none" font-family="Arial" font-size="15px" font-style="normal" font-weight="bold" text-decoration="none" x="66.47802734375" y="580.5">interruption</text></g></g><g transform="translate(-6,-6) scale(1,1)"><path fill="none" stroke="#000000" d="M 104 473 L 104 543" stroke-miterlimit="10"/></g><g transform="translate(-6,-6) scale(1,1)"><path fill="none" stroke="#000000" d="M 99.79048224398402 532.8373251423759 L 104 543 L 108.20951775601598 532.8373251423759" stroke-miterlimit="10"/></g><g transform="translate(-6,-6) scale(1,1)"><g><path fill="none" stroke="none"/><text fill="#000000" stroke="none" font-family="Arial" font-size="15px" font-style="normal" font-weight="normal" text-decoration="none" x="23.5" y="523.5">Emergency</text><text fill="#000000" stroke="none" font-family="Arial" font-size="15px" font-style="normal" font-weight="normal" text-decoration="none" x="41.836181640625" y="538.5">signal</text></g></g><g transform="translate(-6,-6) scale(1,1)"><path fill="none" stroke="#000000" d="M 120 521 L 144 521" stroke-miterlimit="10"/></g><g transform="translate(-6,-6) scale(1,1)"><path fill="none" stroke="#000000" d="M 144 521 L 120 535" stroke-miterlimit="10"/></g><g transform="translate(-6,-6) scale(1,1)"><path fill="none" stroke="#000000" d="M 120 535 L 144 535" stroke-miterlimit="10"/></g><g transform="translate(-6,-6) scale(1,1)"><path fill="none" stroke="#000000" d="M 144 535 L 139 540" stroke-miterlimit="10"/></g><g transform="translate(-6,-6) scale(1,1)"><path fill="none" stroke="#000000" d="M 144 535 L 139 530" stroke-miterlimit="10"/></g><g transform="translate(-6,-6) scale(1,1)"><path fill="#C0C0C0" stroke="none" d="M 329 599 L 453 599 Q 463 599 463 609 L 463 646 Q 463 656 453 656 L 329 656 Q 319 656 319 646 L 319 609 Q 319 599 329 599 Z" opacity="0.2"/></g><g transform="translate(-6,-6) scale(1,1)"><path fill="#ffc082" stroke="none" d="M 322 592 L 446 592 Q 456 592 456 602 L 456 639 Q 456 649 446 649 L 322 649 Q 312 649 312 639 L 312 602 Q 312 592 322 592 Z"/></g><g transform="translate(-6,-6) scale(1,1)"><path fill="none" stroke="#000000" d="M 322 592 L 446 592 Q 456 592 456 602 L 456 639 Q 456 649 446 649 L 322 649 Q 312 649 312 639 L 312 602 Q 312 592 322 592 Z" stroke-miterlimit="10"/></g><g transform="translate(-6,-6) scale(1,1)"><g><path fill="none" stroke="none"/><text fill="#000000" stroke="none" font-family="Arial" font-size="15px" font-style="normal" font-weight="bold" text-decoration="none" x="321.04833984375" y="613.5">Handle emergency</text><text fill="#000000" stroke="none" font-family="Arial" font-size="15px" font-style="normal" font-weight="bold" text-decoration="none" x="346.47802734375" y="628.5">interruption</text></g></g><g transform="translate(-6,-6) scale(1,1)"><path fill="none" stroke="#000000" d="M 384 521 L 384 591" stroke-miterlimit="10"/></g><g transform="translate(-6,-6) scale(1,1)"><path fill="none" stroke="#000000" d="M 379.790482243984 580.8373251423759 L 384 591 L 388.209517756016 580.8373251423759" stroke-miterlimit="10"/></g><g transform="translate(-6,-6) scale(1,1)"><g><path fill="none" stroke="none"/><text fill="#000000" stroke="none" font-family="Arial" font-size="15px" font-style="normal" font-weight="normal" text-decoration="none" x="302.5" y="572.5">Emergency</text><text fill="#000000" stroke="none" font-family="Arial" font-size="15px" font-style="normal" font-weight="normal" text-decoration="none" x="320.836181640625" y="587.5">signal</text></g></g><g transform="translate(-6,-6) scale(1,1)"><path fill="none" stroke="#000000" d="M 398 567 L 422 567" stroke-miterlimit="10"/></g><g transform="translate(-6,-6) scale(1,1)"><path fill="none" stroke="#000000" d="M 422 567 L 398 581" stroke-miterlimit="10"/></g><g transform="translate(-6,-6) scale(1,1)"><path fill="none" stroke="#000000" d="M 398 581 L 422 581" stroke-miterlimit="10"/></g><g transform="translate(-6,-6) scale(1,1)"><path fill="none" stroke="#000000" d="M 422 581 L 417 586" stroke-miterlimit="10"/></g><g transform="translate(-6,-6) scale(1,1)"><path fill="none" stroke="#000000" d="M 422 581 L 417 576" stroke-miterlimit="10"/></g><g transform="translate(-6,-6) scale(1,1)"><path fill="#C0C0C0" stroke="none" d="M 849 591 L 973 591 Q 983 591 983 601 L 983 638 Q 983 648 973 648 L 849 648 Q 839 648 839 638 L 839 601 Q 839 591 849 591 Z" opacity="0.2"/></g><g transform="translate(-6,-6) scale(1,1)"><path fill="#ffc082" stroke="none" d="M 842 584 L 966 584 Q 976 584 976 594 L 976 631 Q 976 641 966 641 L 842 641 Q 832 641 832 631 L 832 594 Q 832 584 842 584 Z"/></g><g transform="translate(-6,-6) scale(1,1)"><path fill="none" stroke="#000000" d="M 842 584 L 966 584 Q 976 584 976 594 L 976 631 Q 976 641 966 641 L 842 641 Q 832 641 832 631 L 832 594 Q 832 584 842 584 Z" stroke-miterlimit="10"/></g><g transform="translate(-6,-6) scale(1,1)"><g><path fill="none" stroke="none"/><text fill="#000000" stroke="none" font-family="Arial" font-size="15px" font-style="normal" font-weight="bold" text-decoration="none" x="841.04833984375" y="605.5">Handle emergency</text><text fill="#000000" stroke="none" font-family="Arial" font-size="15px" font-style="normal" font-weight="bold" text-decoration="none" x="866.47802734375" y="620.5">interruption</text></g></g><g transform="translate(-6,-6) scale(1,1)"><path fill="none" stroke="#000000" d="M 904 537 L 904 583" stroke-miterlimit="10"/></g><g transform="translate(-6,-6) scale(1,1)"><path fill="none" stroke="#000000" d="M 899.790482243984 572.8373251423759 L 904 583 L 908.209517756016 572.8373251423759" stroke-miterlimit="10"/></g><g transform="translate(-6,-6) scale(1,1)"><g><path fill="none" stroke="none"/><text fill="#000000" stroke="none" font-family="Arial" font-size="15px" font-style="normal" font-weight="normal" text-decoration="none" x="822.5" y="562.5">Emergency</text><text fill="#000000" stroke="none" font-family="Arial" font-size="15px" font-style="normal" font-weight="normal" text-decoration="none" x="840.836181640625" y="577.5">signal</text></g></g><g transform="translate(-6,-6) scale(1,1)"><path fill="none" stroke="#000000" d="M 919 559 L 943 559" stroke-miterlimit="10"/></g><g transform="translate(-6,-6) scale(1,1)"><path fill="none" stroke="#000000" d="M 943 559 L 919 573" stroke-miterlimit="10"/></g><g transform="translate(-6,-6) scale(1,1)"><path fill="none" stroke="#000000" d="M 919 573 L 943 573" stroke-miterlimit="10"/></g><g transform="translate(-6,-6) scale(1,1)"><path fill="none" stroke="#000000" d="M 943 573 L 938 578" stroke-miterlimit="10"/></g><g transform="translate(-6,-6) scale(1,1)"><path fill="none" stroke="#000000" d="M 943 573 L 938 568" stroke-miterlimit="10"/></g></g></svg>