<svg version="1.1" xmlns="http://www.w3.org/2000/svg" xmlns:xlink="http://www.w3.org/1999/xlink" width="2660" height="1458"><defs/><g><g transform="translate(-46,-46) scale(1,1)"><path fill="none" stroke="#000000" d="M 960 56 L 1264 56 L 1264 344 L 960 344 L 960 56" stroke-miterlimit="10"/></g><g transform="translate(-46,-46) scale(1,1)"><path fill="#ffffff" stroke="none" d="M 960 56 L 960 78 L 1121.92626953125 78 L 1132.92626953125 67 L 1132.92626953125 56 L 960 56"/></g><g transform="translate(-46,-46) scale(1,1)"><path fill="none" stroke="#000000" d="M 960 56 L 960 78 L 1121.92626953125 78 L 1132.92626953125 67 L 1132.92626953125 56 L 960 56 L 960 56" stroke-miterlimit="10"/></g><g transform="translate(-46,-46) scale(1,1)"><g><path fill="none" stroke="none"/><text fill="#000000" stroke="none" font-family="Arial" font-size="13px" font-style="normal" font-weight="normal" text-decoration="none" x="1010.72998046875" y="73.5">Disaster Recovery</text></g></g><g transform="translate(-46,-46) scale(1,1)"><g><path fill="none" stroke="none"/><text fill="#000000" stroke="none" font-family="Arial" font-size="13px" font-style="normal" font-weight="bold" text-decoration="none" x="965" y="73.5">activity</text></g></g><g transform="translate(-46,-46) scale(1,1)"><path fill="none" stroke="#000000" d="M 56 56 L 704 56 L 704 408 L 56 408 L 56 56" stroke-miterlimit="10"/></g><g transform="translate(-46,-46) scale(1,1)"><path fill="#ffffff" stroke="none" d="M 56 56 L 56 78 L 153.6435546875 78 L 164.6435546875 67 L 164.6435546875 56 L 56 56"/></g><g transform="translate(-46,-46) scale(1,1)"><path fill="none" stroke="#000000" d="M 56 56 L 56 78 L 153.6435546875 78 L 164.6435546875 67 L 164.6435546875 56 L 56 56 L 56 56" stroke-miterlimit="10"/></g><g transform="translate(-46,-46) scale(1,1)"><g><path fill="none" stroke="none"/><text fill="#000000" stroke="none" font-family="Arial" font-size="13px" font-style="normal" font-weight="normal" text-decoration="none" x="106.72998046875" y="73.5">Startup</text></g></g><g transform="translate(-46,-46) scale(1,1)"><g><path fill="none" stroke="none"/><text fill="#000000" stroke="none" font-family="Arial" font-size="13px" font-style="normal" font-weight="bold" text-decoration="none" x="61" y="73.5">activity</text></g></g><g transform="translate(-46,-46) scale(1,1)"><path fill="none" stroke="#000000" d="M 56 568 L 480 568 L 480 1088 L 56 1088 L 56 568" stroke-miterlimit="10"/></g><g transform="translate(-46,-46) scale(1,1)"><path fill="#ffffff" stroke="none" d="M 56 568 L 56 590 L 288.06787109375 590 L 299.06787109375 579 L 299.06787109375 568 L 56 568"/></g><g transform="translate(-46,-46) scale(1,1)"><path fill="none" stroke="#000000" d="M 56 568 L 56 590 L 288.06787109375 590 L 299.06787109375 579 L 299.06787109375 568 L 56 568 L 56 568" stroke-miterlimit="10"/></g><g transform="translate(-46,-46) scale(1,1)"><g><path fill="none" stroke="none"/><text fill="#000000" stroke="none" font-family="Arial" font-size="13px" font-style="normal" font-weight="normal" text-decoration="none" x="106.72998046875" y="585.5">Pre-Launch and Ascent Phase</text></g></g><g transform="translate(-46,-46) scale(1,1)"><g><path fill="none" stroke="none"/><text fill="#000000" stroke="none" font-family="Arial" font-size="13px" font-style="normal" font-weight="bold" text-decoration="none" x="61" y="585.5">activity</text></g></g><g transform="translate(-46,-46) scale(1,1)"><path fill="none" stroke="#000000" d="M 864 568 L 1336 568 L 1336 1264 L 864 1264 L 864 568" stroke-miterlimit="10"/></g><g transform="translate(-46,-46) scale(1,1)"><path fill="#ffffff" stroke="none" d="M 864 568 L 864 590 L 1078.70068359375 590 L 1089.70068359375 579 L 1089.70068359375 568 L 864 568"/></g><g transform="translate(-46,-46) scale(1,1)"><path fill="none" stroke="#000000" d="M 864 568 L 864 590 L 1078.70068359375 590 L 1089.70068359375 579 L 1089.70068359375 568 L 864 568 L 864 568" stroke-miterlimit="10"/></g><g transform="translate(-46,-46) scale(1,1)"><g><path fill="none" stroke="none"/><text fill="#000000" stroke="none" font-family="Arial" font-size="13px" font-style="normal" font-weight="normal" text-decoration="none" x="914.72998046875" y="585.5">High Profile Descent Phase</text></g></g><g transform="translate(-46,-46) scale(1,1)"><g><path fill="none" stroke="none"/><text fill="#000000" stroke="none" font-family="Arial" font-size="13px" font-style="normal" font-weight="bold" text-decoration="none" x="869" y="585.5">activity</text></g></g><g transform="translate(-46,-46) scale(1,1)"><path fill="none" stroke="#000000" d="M 2128 568 L 2488 568 L 2488 1152 L 2128 1152 L 2128 568" stroke-miterlimit="10"/></g><g transform="translate(-46,-46) scale(1,1)"><path fill="#ffffff" stroke="none" d="M 2128 568 L 2128 590 L 2413.55322265625 590 L 2424.55322265625 579 L 2424.55322265625 568 L 2128 568"/></g><g transform="translate(-46,-46) scale(1,1)"><path fill="none" stroke="#000000" d="M 2128 568 L 2128 590 L 2413.55322265625 590 L 2424.55322265625 579 L 2424.55322265625 568 L 2128 568 L 2128 568" stroke-miterlimit="10"/></g><g transform="translate(-46,-46) scale(1,1)"><g><path fill="none" stroke="none"/><text fill="#000000" stroke="none" font-family="Arial" font-size="13px" font-style="normal" font-weight="normal" text-decoration="none" x="2178.72998046875" y="585.5">Low Profile Descent and Landing phase</text></g></g><g transform="translate(-46,-46) scale(1,1)"><g><path fill="none" stroke="none"/><text fill="#000000" stroke="none" font-family="Arial" font-size="13px" font-style="normal" font-weight="bold" text-decoration="none" x="2133" y="585.5">activity</text></g></g><g transform="translate(-46,-46) scale(1,1)"><path fill="none" stroke="#000000" d="M 1568 568 L 1816 568 L 1816 936 L 1568 936 L 1568 568" stroke-miterlimit="10"/></g><g transform="translate(-46,-46) scale(1,1)"><path fill="#ffffff" stroke="none" d="M 1568 568 L 1568 590 L 1716.208984375 590 L 1727.208984375 579 L 1727.208984375 568 L 1568 568"/></g><g transform="translate(-46,-46) scale(1,1)"><path fill="none" stroke="#000000" d="M 1568 568 L 1568 590 L 1716.208984375 590 L 1727.208984375 579 L 1727.208984375 568 L 1568 568 L 1568 568" stroke-miterlimit="10"/></g><g transform="translate(-46,-46) scale(1,1)"><g><path fill="none" stroke="none"/><text fill="#000000" stroke="none" font-family="Arial" font-size="13px" font-style="normal" font-weight="normal" text-decoration="none" x="1618.72998046875" y="585.5">Flight Transition</text></g></g><g transform="translate(-46,-46) scale(1,1)"><g><path fill="none" stroke="none"/><text fill="#000000" stroke="none" font-family="Arial" font-size="13px" font-style="normal" font-weight="bold" text-decoration="none" x="1573" y="585.5">activity</text></g></g><g transform="translate(-46,-46) scale(1,1)"><path fill="none" stroke="#000000" d="M 2144 120 L 2488 120 L 2488 408 L 2144 408 L 2144 120" stroke-miterlimit="10"/></g><g transform="translate(-46,-46) scale(1,1)"><path fill="#ffffff" stroke="none" d="M 2144 120 L 2144 142 L 2383.98974609375 142 L 2394.98974609375 131 L 2394.98974609375 120 L 2144 120"/></g><g transform="translate(-46,-46) scale(1,1)"><path fill="none" stroke="#000000" d="M 2144 120 L 2144 142 L 2383.98974609375 142 L 2394.98974609375 131 L 2394.98974609375 120 L 2144 120 L 2144 120" stroke-miterlimit="10"/></g><g transform="translate(-46,-46) scale(1,1)"><g><path fill="none" stroke="none"/><text fill="#000000" stroke="none" font-family="Arial" font-size="13px" font-style="normal" font-weight="normal" text-decoration="none" x="2194.72998046875" y="137.5">Emergency Interruption Handler</text></g></g><g transform="translate(-46,-46) scale(1,1)"><g><path fill="none" stroke="none"/><text fill="#000000" stroke="none" font-family="Arial" font-size="13px" font-style="normal" font-weight="bold" text-decoration="none" x="2149" y="137.5">activity</text></g></g><g transform="translate(-46,-46) scale(1,1)"><path fill="none" stroke="#000000" d="M 1088 512 L 384 512 L 384 608 L 288 608 L 288 640" stroke-miterlimit="10"/></g><g transform="translate(-46,-46) scale(1,1)"><path fill="none" stroke="#000000" d="M 283.790482243984 629.8373251423759 L 288 640 L 292.209517756016 629.8373251423759" stroke-miterlimit="10"/></g><g transform="translate(-46,-46) scale(1,1)"><g><path fill="none" stroke="none"/><text fill="#000000" stroke="none" font-family="Arial" font-size="13px" font-style="normal" font-weight="normal" text-decoration="none" x="626.015869140625" y="508.5">Pre-Launch and Ascent</text></g></g><g transform="translate(-46,-46) scale(1,1)"><path fill="#C0C0C0" stroke="none" d="M 103 120.5 C 103 115.2532944 107.2532944 111 112.5 111 C 117.7467056 111 122 115.2532944 122 120.5 C 122 125.7467056 117.7467056 130 112.5 130 C 107.2532944 130 103 125.7467056 103 120.5 Z" opacity="0.2"/></g><g transform="translate(-46,-46) scale(1,1)"><path fill="#000000" stroke="none" d="M 96 113.5 C 96 108.2532944 100.2532944 104 105.5 104 C 110.7467056 104 115 108.2532944 115 113.5 C 115 118.7467056 110.7467056 123 105.5 123 C 100.2532944 123 96 118.7467056 96 113.5 Z"/></g><g transform="translate(-46,-46) scale(1,1)"><path fill="#C0C0C0" stroke="none" d="M 169 103 L 261 103 Q 271 103 271 113 L 271 133 Q 271 143 261 143 L 169 143 Q 159 143 159 133 L 159 113 Q 159 103 169 103 Z" opacity="0.2"/></g><g transform="translate(-46,-46) scale(1,1)"><path fill="#ffffff" stroke="none" d="M 162 96 L 254 96 Q 264 96 264 106 L 264 126 Q 264 136 254 136 L 162 136 Q 152 136 152 126 L 152 106 Q 152 96 162 96 Z"/></g><g transform="translate(-46,-46) scale(1,1)"><path fill="none" stroke="#000000" d="M 162 96 L 254 96 Q 264 96 264 106 L 264 126 Q 264 136 254 136 L 162 136 Q 152 136 152 126 L 152 106 Q 152 96 162 96 Z" stroke-miterlimit="10"/></g><g transform="translate(-46,-46) scale(1,1)"><g><path fill="none" stroke="none"/><text fill="#000000" stroke="none" font-family="Arial" font-size="13px" font-style="normal" font-weight="bold" text-decoration="none" x="163.54736328125" y="115.5">Boot Sequence</text></g></g><g transform="translate(-46,-46) scale(1,1)"><path fill="none" stroke="#000000" d="M 115 115 L 152 115" stroke-miterlimit="10"/></g><g transform="translate(-46,-46) scale(1,1)"><path fill="none" stroke="#000000" d="M 141.83732514237585 119.20951775601598 L 152 115 L 141.83732514237585 110.79048224398402" stroke-miterlimit="10"/></g><g transform="translate(-46,-46) scale(1,1)"><path fill="#C0C0C0" stroke="none" d="M 303 103 L 511 103 L 511 143 L 303 143 L 313.25 123.5" opacity="0.2"/></g><g transform="translate(-46,-46) scale(1,1)"><path fill="#ffffff" stroke="none" d="M 296 96 L 504 96 L 504 136 L 296 136 L 306.25 116.5"/></g><g transform="translate(-46,-46) scale(1,1)"><path fill="none" stroke="#000000" d="M 296 96 L 504 96 L 504 136 L 296 136 L 306.25 116.5 L 296 96" stroke-miterlimit="10"/></g><g transform="translate(-46,-46) scale(1,1)"><g><path fill="none" stroke="none"/><text fill="#000000" stroke="none" font-family="Arial" font-size="13px" font-style="normal" font-weight="bold" text-decoration="none" x="314.373291015625" y="115.5">Read from secondary storage</text></g></g><g transform="translate(-46,-46) scale(1,1)"><path fill="none" stroke="#000000" d="M 264 116 L 296 116" stroke-miterlimit="10"/></g><g transform="translate(-46,-46) scale(1,1)"><path fill="none" stroke="#000000" d="M 285.83732514237585 120.20951775601598 L 296 116 L 285.83732514237585 111.79048224398402" stroke-miterlimit="10"/></g><g transform="translate(-46,-46) scale(1,1)"><path fill="#C0C0C0" stroke="none" d="M 615 127.5 L 639.5 103 L 663 127.5 L 639.5 151 L 615 127.5" opacity="0.2"/></g><g transform="translate(-46,-46) scale(1,1)"><path fill="#ffffff" stroke="none" d="M 608 120 L 632 96 L 656 120 L 632 144 L 608 120"/></g><g transform="translate(-46,-46) scale(1,1)"><path fill="none" stroke="#000000" d="M 608 120 L 632 96 L 656 120 L 632 144 L 608 120 L 608 120" stroke-miterlimit="10"/></g><g transform="translate(-46,-46) scale(1,1)"><path fill="none" stroke="#000000" d="M 504 119 L 608 119" stroke-miterlimit="10"/></g><g transform="translate(-46,-46) scale(1,1)"><path fill="none" stroke="#000000" d="M 597.8373251423759 123.20951775601598 L 608 119 L 597.8373251423758 114.79048224398402" stroke-miterlimit="10"/></g><g transform="translate(-46,-46) scale(1,1)"><path fill="#C0C0C0" stroke="none" d="M 1009 103 L 1229 103 Q 1239 103 1239 113 L 1239 133 Q 1239 143 1229 143 L 1009 143 Q 999 143 999 133 L 999 113 Q 999 103 1009 103 Z" opacity="0.2"/></g><g transform="translate(-46,-46) scale(1,1)"><path fill="#ffffff" stroke="none" d="M 1002 96 L 1222 96 Q 1232 96 1232 106 L 1232 126 Q 1232 136 1222 136 L 1002 136 Q 992 136 992 126 L 992 106 Q 992 96 1002 96 Z"/></g><g transform="translate(-46,-46) scale(1,1)"><path fill="none" stroke="#000000" d="M 1002 96 L 1222 96 Q 1232 96 1232 106 L 1232 126 Q 1232 136 1222 136 L 1002 136 Q 992 136 992 126 L 992 106 Q 992 96 1002 96 Z" stroke-miterlimit="10"/></g><g transform="translate(-46,-46) scale(1,1)"><g><path fill="none" stroke="none"/><text fill="#000000" stroke="none" font-family="Arial" font-size="13px" font-style="normal" font-weight="bold" text-decoration="none" x="1013.747802734375" y="115.5">Assign mission critical parameters</text></g></g><g transform="translate(-46,-46) scale(1,1)"><path fill="#C0C0C0" stroke="none" d="M 975 183 L 1263 183 L 1263 223 L 975 223 L 985.25 203.5" opacity="0.2"/></g><g transform="translate(-46,-46) scale(1,1)"><path fill="#ffffff" stroke="none" d="M 968 176 L 1256 176 L 1256 216 L 968 216 L 978.25 196.5"/></g><g transform="translate(-46,-46) scale(1,1)"><path fill="none" stroke="#000000" d="M 968 176 L 1256 176 L 1256 216 L 968 216 L 978.25 196.5 L 968 176" stroke-miterlimit="10"/></g><g transform="translate(-46,-46) scale(1,1)"><g><path fill="none" stroke="none"/><text fill="#000000" stroke="none" font-family="Arial" font-size="13px" font-style="normal" font-weight="bold" text-decoration="none" x="994.23828125" y="195.5">Gather Mission critical data from sensors</text></g></g><g transform="translate(-46,-46) scale(1,1)"><path fill="#ffffff" stroke="none" d="M 1098.275390625 256 L 1121.275390625 256 L 1098.275390625 279 L 1121.275390625 279 L 1098.275390625 256"/></g><g transform="translate(-46,-46) scale(1,1)"><path fill="none" stroke="#000000" d="M 1098.275390625 256 L 1121.275390625 256 L 1098.275390625 279 L 1121.275390625 279 L 1098.275390625 256 L 1098.275390625 256" stroke-miterlimit="10"/></g><g transform="translate(-46,-46) scale(1,1)"><g><path fill="none" stroke="none"/><text fill="#000000" stroke="none" font-family="Arial" font-size="13px" font-style="normal" font-weight="bold" text-decoration="none" x="1081.594970703125" y="298.5">100 msec</text></g></g><g transform="translate(-46,-46) scale(1,1)"><path fill="none" stroke="#000000" d="M 656 120 L 992 120" stroke-miterlimit="10"/></g><g transform="translate(-46,-46) scale(1,1)"><path fill="none" stroke="#000000" d="M 981.8373251423759 124.20951775601598 L 992 120 L 981.8373251423758 115.79048224398402" stroke-miterlimit="10"/></g><g transform="translate(-46,-46) scale(1,1)"><g><path fill="none" stroke="none"/><text fill="#000000" stroke="none" font-family="Arial" font-size="13px" font-style="normal" font-weight="normal" text-decoration="none" x="777.5" y="115.5">Data present</text></g></g><g transform="translate(-46,-46) scale(1,1)"><path fill="none" stroke="#000000" d="M 1112 136 L 1112 176" stroke-miterlimit="10"/></g><g transform="translate(-46,-46) scale(1,1)"><path fill="none" stroke="#000000" d="M 1107.7904822439841 165.83732514237585 L 1112 176 L 1116.2095177560159 165.83732514237585" stroke-miterlimit="10"/></g><g transform="translate(-46,-46) scale(1,1)"><path fill="none" stroke="#000000" d="M 1111 216 L 1111 256" stroke-miterlimit="10"/></g><g transform="translate(-46,-46) scale(1,1)"><path fill="none" stroke="#000000" d="M 1106.7904822439841 245.83732514237585 L 1111 256 L 1115.2095177560159 245.83732514237585" stroke-miterlimit="10"/></g><g transform="translate(-46,-46) scale(1,1)"><path fill="#C0C0C0" stroke="none" d="M 351 183 L 560.28076171875 183 L 560.28076171875 223 L 351 223 L 361.25 203.5" opacity="0.2"/></g><g transform="translate(-46,-46) scale(1,1)"><path fill="#ffffff" stroke="none" d="M 344 176 L 553.28076171875 176 L 553.28076171875 216 L 344 216 L 354.25 196.5"/></g><g transform="translate(-46,-46) scale(1,1)"><path fill="none" stroke="#000000" d="M 344 176 L 553.28076171875 176 L 553.28076171875 216 L 344 216 L 354.25 196.5 L 344 176" stroke-miterlimit="10"/></g><g transform="translate(-46,-46) scale(1,1)"><g><path fill="none" stroke="none"/><text fill="#000000" stroke="none" font-family="Arial" font-size="13px" font-style="normal" font-weight="bold" text-decoration="none" x="366.6318359375" y="195.5">Gather data from all sensors</text></g></g><g transform="translate(-46,-46) scale(1,1)"><path fill="#C0C0C0" stroke="none" d="M 81 183 L 301 183 Q 311 183 311 193 L 311 213 Q 311 223 301 223 L 81 223 Q 71 223 71 213 L 71 193 Q 71 183 81 183 Z" opacity="0.2"/></g><g transform="translate(-46,-46) scale(1,1)"><path fill="#ffffff" stroke="none" d="M 74 176 L 294 176 Q 304 176 304 186 L 304 206 Q 304 216 294 216 L 74 216 Q 64 216 64 206 L 64 186 Q 64 176 74 176 Z"/></g><g transform="translate(-46,-46) scale(1,1)"><path fill="none" stroke="#000000" d="M 74 176 L 294 176 Q 304 176 304 186 L 304 206 Q 304 216 294 216 L 74 216 Q 64 216 64 206 L 64 186 Q 64 176 74 176 Z" stroke-miterlimit="10"/></g><g transform="translate(-46,-46) scale(1,1)"><g><path fill="none" stroke="none"/><text fill="#000000" stroke="none" font-family="Arial" font-size="13px" font-style="normal" font-weight="bold" text-decoration="none" x="85.747802734375" y="195.5">Assign mission critical parameters</text></g></g><g transform="translate(-46,-46) scale(1,1)"><path fill="#C0C0C0" stroke="none" d="M 489 263 L 645 263 Q 655 263 655 273 L 655 293 Q 655 303 645 303 L 489 303 Q 479 303 479 293 L 479 273 Q 479 263 489 263 Z" opacity="0.2"/></g><g transform="translate(-46,-46) scale(1,1)"><path fill="#ffffff" stroke="none" d="M 482 256 L 638 256 Q 648 256 648 266 L 648 286 Q 648 296 638 296 L 482 296 Q 472 296 472 286 L 472 266 Q 472 256 482 256 Z"/></g><g transform="translate(-46,-46) scale(1,1)"><path fill="none" stroke="#000000" d="M 482 256 L 638 256 Q 648 256 648 266 L 648 286 Q 648 296 638 296 L 482 296 Q 472 296 472 286 L 472 266 Q 472 256 482 256 Z" stroke-miterlimit="10"/></g><g transform="translate(-46,-46) scale(1,1)"><g><path fill="none" stroke="none"/><text fill="#000000" stroke="none" font-family="Arial" font-size="13px" font-style="normal" font-weight="bold" text-decoration="none" x="489.918701171875" y="275.5">Perform preflight checks</text></g></g><g transform="translate(-46,-46) scale(1,1)"><path fill="none" stroke="#000000" d="M 632 144 L 632 192 L 553 192" stroke-miterlimit="10"/></g><g transform="translate(-46,-46) scale(1,1)"><path fill="none" stroke="#000000" d="M 563.1626748576241 187.790482243984 L 553 192 L 563.1626748576241 196.209517756016" stroke-miterlimit="10"/></g><g transform="translate(-46,-46) scale(1,1)"><g><path fill="none" stroke="none"/><text fill="#000000" stroke="none" font-family="Arial" font-size="13px" font-style="normal" font-weight="normal" text-decoration="none" x="526.5" y="162.5">Data not present</text></g></g><g transform="translate(-46,-46) scale(1,1)"><path fill="none" stroke="#000000" d="M 344 196 L 304 196" stroke-miterlimit="10"/></g><g transform="translate(-46,-46) scale(1,1)"><path fill="none" stroke="#000000" d="M 314.16267485762415 191.790482243984 L 304 196 L 314.16267485762415 200.209517756016" stroke-miterlimit="10"/></g><g transform="translate(-46,-46) scale(1,1)"><path fill="none" stroke="#000000" d="M 177 216 L 177 256" stroke-miterlimit="10"/></g><g transform="translate(-46,-46) scale(1,1)"><path fill="none" stroke="#000000" d="M 172.790482243984 245.83732514237585 L 177 256 L 181.209517756016 245.83732514237585" stroke-miterlimit="10"/></g><g transform="translate(-46,-46) scale(1,1)"><path fill="#C0C0C0" stroke="none" d="M 439 343 L 439 383 L 652.75 383 L 663 363.5 L 652.75 343" opacity="0.2"/></g><g transform="translate(-46,-46) scale(1,1)"><path fill="#ffffff" stroke="none" d="M 432 336 L 432 376 L 645.75 376 L 656 356.5 L 645.75 336"/></g><g transform="translate(-46,-46) scale(1,1)"><path fill="none" stroke="#000000" d="M 432 336 L 432 376 L 645.75 376 L 656 356.5 L 645.75 336 L 432 336" stroke-miterlimit="10"/></g><g transform="translate(-46,-46) scale(1,1)"><g><path fill="none" stroke="none"/><text fill="#000000" stroke="none" font-family="Arial" font-size="13px" font-style="normal" font-weight="bold" text-decoration="none" x="456.5546875" y="355.5">Signal status to ground station</text></g></g><g transform="translate(-46,-46) scale(1,1)"><path fill="none" stroke="#000000" d="M 544 296 L 544 336" stroke-miterlimit="10"/></g><g transform="translate(-46,-46) scale(1,1)"><path fill="none" stroke="#000000" d="M 539.790482243984 325.83732514237585 L 544 336 L 548.209517756016 325.83732514237585" stroke-miterlimit="10"/></g><g transform="translate(-46,-46) scale(1,1)"><path fill="#C0C0C0" stroke="none" d="M 183 743 L 391 743 L 391 783 L 183 783 L 193.25 763.5" opacity="0.2"/></g><g transform="translate(-46,-46) scale(1,1)"><path fill="#ffffff" stroke="none" d="M 176 736 L 384 736 L 384 776 L 176 776 L 186.25 756.5"/></g><g transform="translate(-46,-46) scale(1,1)"><path fill="none" stroke="#000000" d="M 176 736 L 384 736 L 384 776 L 176 776 L 186.25 756.5 L 176 736" stroke-miterlimit="10"/></g><g transform="translate(-46,-46) scale(1,1)"><g><path fill="none" stroke="none"/><text fill="#000000" stroke="none" font-family="Arial" font-size="13px" font-style="normal" font-weight="bold" text-decoration="none" x="197.991455078125" y="755.5">Gather data from all sensors</text></g></g><g transform="translate(-46,-46) scale(1,1)"><path fill="#C0C0C0" stroke="none" d="M 167 831 L 167 871 L 396.75 871 L 407 851.5 L 396.75 831" opacity="0.2"/></g><g transform="translate(-46,-46) scale(1,1)"><path fill="#ffffff" stroke="none" d="M 160 824 L 160 864 L 389.75 864 L 400 844.5 L 389.75 824"/></g><g transform="translate(-46,-46) scale(1,1)"><path fill="none" stroke="#000000" d="M 160 824 L 160 864 L 389.75 864 L 400 844.5 L 389.75 824 L 160 824" stroke-miterlimit="10"/></g><g transform="translate(-46,-46) scale(1,1)"><g><path fill="none" stroke="none"/><text fill="#000000" stroke="none" font-family="Arial" font-size="13px" font-style="normal" font-weight="bold" text-decoration="none" x="186.0546875" y="843.5">Send telemetry to ground station</text></g></g><g transform="translate(-46,-46) scale(1,1)"><path fill="#ffffff" stroke="none" d="M 268.5 912 L 291.5 912 L 268.5 935 L 291.5 935 L 268.5 912"/></g><g transform="translate(-46,-46) scale(1,1)"><path fill="none" stroke="#000000" d="M 268.5 912 L 291.5 912 L 268.5 935 L 291.5 935 L 268.5 912 L 268.5 912" stroke-miterlimit="10"/></g><g transform="translate(-46,-46) scale(1,1)"><g><path fill="none" stroke="none"/><text fill="#000000" stroke="none" font-family="Arial" font-size="13px" font-style="normal" font-weight="bold" text-decoration="none" x="248.20458984375" y="954.5">1000 msec</text></g></g><g transform="translate(-46,-46) scale(1,1)"><path fill="#C0C0C0" stroke="none" d="M 263 1031.5 L 287.5 1007 L 311 1031.5 L 287.5 1055 L 263 1031.5" opacity="0.2"/></g><g transform="translate(-46,-46) scale(1,1)"><path fill="#ffffff" stroke="none" d="M 256 1024 L 280 1000 L 304 1024 L 280 1048 L 256 1024"/></g><g transform="translate(-46,-46) scale(1,1)"><path fill="none" stroke="#000000" d="M 256 1024 L 280 1000 L 304 1024 L 280 1048 L 256 1024 L 256 1024" stroke-miterlimit="10"/></g><g transform="translate(-46,-46) scale(1,1)"><path fill="none" stroke="#000000" d="M 280 960 L 280 1000" stroke-miterlimit="10"/></g><g transform="translate(-46,-46) scale(1,1)"><path fill="none" stroke="#000000" d="M 275.790482243984 989.8373251423759 L 280 1000 L 284.209517756016 989.8373251423759" stroke-miterlimit="10"/></g><g transform="translate(-46,-46) scale(1,1)"><path fill="none" stroke="#000000" d="M 282 864 L 282 912" stroke-miterlimit="10"/></g><g transform="translate(-46,-46) scale(1,1)"><path fill="none" stroke="#000000" d="M 277.790482243984 901.8373251423759 L 282 912 L 286.209517756016 901.8373251423759" stroke-miterlimit="10"/></g><g transform="translate(-46,-46) scale(1,1)"><path fill="none" stroke="#000000" d="M 281 776 L 281 824" stroke-miterlimit="10"/></g><g transform="translate(-46,-46) scale(1,1)"><path fill="none" stroke="#000000" d="M 276.790482243984 813.8373251423759 L 281 824 L 285.209517756016 813.8373251423759" stroke-miterlimit="10"/></g><g transform="translate(-46,-46) scale(1,1)"><path fill="none" stroke="#000000" d="M 256 1024 L 128 1024 L 128 664 L 256 664" stroke-miterlimit="10"/></g><g transform="translate(-46,-46) scale(1,1)"><path fill="none" stroke="#000000" d="M 245.83732514237585 668.209517756016 L 256 664 L 245.83732514237585 659.790482243984" stroke-miterlimit="10"/></g><g transform="translate(-46,-46) scale(1,1)"><g><path fill="none" stroke="none"/><text fill="#000000" stroke="none" font-family="Arial" font-size="13px" font-style="normal" font-weight="normal" text-decoration="none" x="135.19189453125" y="1019.5">Condition failed</text></g></g><g transform="translate(-46,-46) scale(1,1)"><path fill="#C0C0C0" stroke="none" d="M 1055 671.5 L 1079.5 647 L 1103 671.5 L 1079.5 695 L 1055 671.5" opacity="0.2"/></g><g transform="translate(-46,-46) scale(1,1)"><path fill="#ffffff" stroke="none" d="M 1048 664 L 1072 640 L 1096 664 L 1072 688 L 1048 664"/></g><g transform="translate(-46,-46) scale(1,1)"><path fill="none" stroke="#000000" d="M 1048 664 L 1072 640 L 1096 664 L 1072 688 L 1048 664 L 1048 664" stroke-miterlimit="10"/></g><g transform="translate(-46,-46) scale(1,1)"><path fill="#C0C0C0" stroke="none" d="M 263 671.5 L 287.5 647 L 311 671.5 L 287.5 695 L 263 671.5" opacity="0.2"/></g><g transform="translate(-46,-46) scale(1,1)"><path fill="#ffffff" stroke="none" d="M 256 664 L 280 640 L 304 664 L 280 688 L 256 664"/></g><g transform="translate(-46,-46) scale(1,1)"><path fill="none" stroke="#000000" d="M 256 664 L 280 640 L 304 664 L 280 688 L 256 664 L 256 664" stroke-miterlimit="10"/></g><g transform="translate(-46,-46) scale(1,1)"><path fill="none" stroke="#000000" d="M 280 688 L 280 736" stroke-miterlimit="10"/></g><g transform="translate(-46,-46) scale(1,1)"><path fill="none" stroke="#000000" d="M 275.790482243984 725.8373251423759 L 280 736 L 284.209517756016 725.8373251423759" stroke-miterlimit="10"/></g><g transform="translate(-46,-46) scale(1,1)"><g><path fill="none" stroke="none"/><text fill="#000000" stroke="none" font-family="Arial" font-size="13px" font-style="normal" font-weight="normal" text-decoration="none" x="287.5" y="717.5">No transmission</text></g></g><g transform="translate(-46,-46) scale(1,1)"><path fill="#C0C0C0" stroke="none" d="M 1095 519.5 L 1119.5 495 L 1143 519.5 L 1119.5 543 L 1095 519.5" opacity="0.2"/></g><g transform="translate(-46,-46) scale(1,1)"><path fill="#ffffff" stroke="none" d="M 1088 512 L 1112 488 L 1136 512 L 1112 536 L 1088 512"/></g><g transform="translate(-46,-46) scale(1,1)"><path fill="none" stroke="#000000" d="M 1088 512 L 1112 488 L 1136 512 L 1112 536 L 1088 512 L 1088 512" stroke-miterlimit="10"/></g><g transform="translate(-46,-46) scale(1,1)"><path fill="#C0C0C0" stroke="none" d="M 967 743 L 1191 743 L 1191 783 L 967 783 L 977.25 763.5" opacity="0.2"/></g><g transform="translate(-46,-46) scale(1,1)"><path fill="#ffffff" stroke="none" d="M 960 736 L 1184 736 L 1184 776 L 960 776 L 970.25 756.5"/></g><g transform="translate(-46,-46) scale(1,1)"><path fill="none" stroke="#000000" d="M 960 736 L 1184 736 L 1184 776 L 960 776 L 970.25 756.5 L 960 736" stroke-miterlimit="10"/></g><g transform="translate(-46,-46) scale(1,1)"><g><path fill="none" stroke="none"/><text fill="#000000" stroke="none" font-family="Arial" font-size="13px" font-style="normal" font-weight="bold" text-decoration="none" x="993.609619140625" y="755.5">Gather mission critical data</text></g></g><g transform="translate(-46,-46) scale(1,1)"><path fill="#C0C0C0" stroke="none" d="M 937 815 L 1229 815 Q 1239 815 1239 825 L 1239 845 Q 1239 855 1229 855 L 937 855 Q 927 855 927 845 L 927 825 Q 927 815 937 815 Z" opacity="0.2"/></g><g transform="translate(-46,-46) scale(1,1)"><path fill="#ffffff" stroke="none" d="M 930 808 L 1222 808 Q 1232 808 1232 818 L 1232 838 Q 1232 848 1222 848 L 930 848 Q 920 848 920 838 L 920 818 Q 920 808 930 808 Z"/></g><g transform="translate(-46,-46) scale(1,1)"><path fill="none" stroke="#000000" d="M 930 808 L 1222 808 Q 1232 808 1232 818 L 1232 838 Q 1232 848 1222 848 L 930 848 Q 920 848 920 838 L 920 818 Q 920 808 930 808 Z" stroke-miterlimit="10"/></g><g transform="translate(-46,-46) scale(1,1)"><g><path fill="none" stroke="none"/><text fill="#000000" stroke="none" font-family="Arial" font-size="13px" font-style="normal" font-weight="bold" text-decoration="none" x="951.35107421875" y="827.5">Compute an approximation of the trajectory</text></g></g><g transform="translate(-46,-46) scale(1,1)"><path fill="#C0C0C0" stroke="none" d="M 991 943.5 L 1015.5 919 L 1039 943.5 L 1015.5 967 L 991 943.5" opacity="0.2"/></g><g transform="translate(-46,-46) scale(1,1)"><path fill="#ffffff" stroke="none" d="M 984 936 L 1008 912 L 1032 936 L 1008 960 L 984 936"/></g><g transform="translate(-46,-46) scale(1,1)"><path fill="none" stroke="#000000" d="M 984 936 L 1008 912 L 1032 936 L 1008 960 L 984 936 L 984 936" stroke-miterlimit="10"/></g><g transform="translate(-46,-46) scale(1,1)"><path fill="#C0C0C0" stroke="none" d="M 991 1023.5 L 1015.5 999 L 1039 1023.5 L 1015.5 1047 L 991 1023.5" opacity="0.2"/></g><g transform="translate(-46,-46) scale(1,1)"><path fill="#ffffff" stroke="none" d="M 984 1016 L 1008 992 L 1032 1016 L 1008 1040 L 984 1016"/></g><g transform="translate(-46,-46) scale(1,1)"><path fill="none" stroke="#000000" d="M 984 1016 L 1008 992 L 1032 1016 L 1008 1040 L 984 1016 L 984 1016" stroke-miterlimit="10"/></g><g transform="translate(-46,-46) scale(1,1)"><path fill="#C0C0C0" stroke="none" d="M 1103 927 L 1309.93896484375 927 L 1309.93896484375 967 L 1103 967 L 1113.25 947.5" opacity="0.2"/></g><g transform="translate(-46,-46) scale(1,1)"><path fill="#ffffff" stroke="none" d="M 1096 920 L 1302.93896484375 920 L 1302.93896484375 960 L 1096 960 L 1106.25 940.5"/></g><g transform="translate(-46,-46) scale(1,1)"><path fill="none" stroke="#000000" d="M 1096 920 L 1302.93896484375 920 L 1302.93896484375 960 L 1096 960 L 1106.25 940.5 L 1096 920" stroke-miterlimit="10"/></g><g transform="translate(-46,-46) scale(1,1)"><g><path fill="none" stroke="none"/><text fill="#000000" stroke="none" font-family="Arial" font-size="13px" font-style="normal" font-weight="bold" text-decoration="none" x="1118.90185546875" y="939.5">Gather complementary data</text></g></g><g transform="translate(-46,-46) scale(1,1)"><path fill="#C0C0C0" stroke="none" d="M 1095 999 L 1095 1039 L 1316.75 1039 L 1327 1019.5 L 1316.75 999" opacity="0.2"/></g><g transform="translate(-46,-46) scale(1,1)"><path fill="#ffffff" stroke="none" d="M 1088 992 L 1088 1032 L 1309.75 1032 L 1320 1012.5 L 1309.75 992"/></g><g transform="translate(-46,-46) scale(1,1)"><path fill="none" stroke="#000000" d="M 1088 992 L 1088 1032 L 1309.75 1032 L 1320 1012.5 L 1309.75 992 L 1088 992" stroke-miterlimit="10"/></g><g transform="translate(-46,-46) scale(1,1)"><g><path fill="none" stroke="none"/><text fill="#000000" stroke="none" font-family="Arial" font-size="13px" font-style="normal" font-weight="bold" text-decoration="none" x="1110.0546875" y="1011.5">Send telemetry to ground station</text></g></g><g transform="translate(-46,-46) scale(1,1)"><path fill="none" stroke="#000000" d="M 1032 936 L 1096 936" stroke-miterlimit="10"/></g><g transform="translate(-46,-46) scale(1,1)"><path fill="none" stroke="#000000" d="M 1085.837325142376 940.209517756016 L 1096 936 L 1085.837325142376 931.790482243984" stroke-miterlimit="10"/></g><g transform="translate(-46,-46) scale(1,1)"><g><path fill="none" stroke="none"/><text fill="#000000" stroke="none" font-family="Arial" font-size="13px" font-style="normal" font-weight="normal" text-decoration="none" x="1047.34912109375" y="931.5">10th</text></g></g><g transform="translate(-46,-46) scale(1,1)"><path fill="none" stroke="#000000" d="M 1200 960 L 1200 992" stroke-miterlimit="10"/></g><g transform="translate(-46,-46) scale(1,1)"><path fill="none" stroke="#000000" d="M 1195.7904822439841 981.8373251423759 L 1200 992 L 1204.2095177560159 981.8373251423759" stroke-miterlimit="10"/></g><g transform="translate(-46,-46) scale(1,1)"><path fill="none" stroke="#000000" d="M 1088 1016 L 1032 1016" stroke-miterlimit="10"/></g><g transform="translate(-46,-46) scale(1,1)"><path fill="none" stroke="#000000" d="M 1042.162674857624 1011.790482243984 L 1032 1016 L 1042.162674857624 1020.209517756016" stroke-miterlimit="10"/></g><g transform="translate(-46,-46) scale(1,1)"><path fill="none" stroke="#000000" d="M 1008 960 L 1008 992" stroke-miterlimit="10"/></g><g transform="translate(-46,-46) scale(1,1)"><path fill="none" stroke="#000000" d="M 1003.790482243984 981.8373251423759 L 1008 992 L 1012.209517756016 981.8373251423759" stroke-miterlimit="10"/></g><g transform="translate(-46,-46) scale(1,1)"><g><path fill="none" stroke="none"/><text fill="#000000" stroke="none" font-family="Arial" font-size="13px" font-style="normal" font-weight="normal" text-decoration="none" x="1012.10546875" y="981.5">1-9</text></g></g><g transform="translate(-46,-46) scale(1,1)"><path fill="none" stroke="#000000" d="M 1060 848 L 1060 880 L 1008 880 L 1008 912" stroke-miterlimit="10"/></g><g transform="translate(-46,-46) scale(1,1)"><path fill="none" stroke="#000000" d="M 1003.790482243984 901.8373251423759 L 1008 912 L 1012.209517756016 901.8373251423759" stroke-miterlimit="10"/></g><g transform="translate(-46,-46) scale(1,1)"><path fill="none" stroke="#000000" d="M 1074 776 L 1074 808" stroke-miterlimit="10"/></g><g transform="translate(-46,-46) scale(1,1)"><path fill="none" stroke="#000000" d="M 1069.7904822439841 797.8373251423759 L 1074 808 L 1078.2095177560159 797.8373251423759" stroke-miterlimit="10"/></g><g transform="translate(-46,-46) scale(1,1)"><path fill="none" stroke="#000000" d="M 1072 688 L 1072 736" stroke-miterlimit="10"/></g><g transform="translate(-46,-46) scale(1,1)"><path fill="none" stroke="#000000" d="M 1067.7904822439841 725.8373251423759 L 1072 736 L 1076.2095177560159 725.8373251423759" stroke-miterlimit="10"/></g><g transform="translate(-46,-46) scale(1,1)"><g><path fill="none" stroke="none"/><text fill="#000000" stroke="none" font-family="Arial" font-size="13px" font-style="normal" font-weight="normal" text-decoration="none" x="1079.5" y="717.5">No transmission</text></g></g><g transform="translate(-46,-46) scale(1,1)"><path fill="#ffffff" stroke="none" d="M 1054.275390625 1096 L 1077.275390625 1096 L 1054.275390625 1119 L 1077.275390625 1119 L 1054.275390625 1096"/></g><g transform="translate(-46,-46) scale(1,1)"><path fill="none" stroke="#000000" d="M 1054.275390625 1096 L 1077.275390625 1096 L 1054.275390625 1119 L 1077.275390625 1119 L 1054.275390625 1096 L 1054.275390625 1096" stroke-miterlimit="10"/></g><g transform="translate(-46,-46) scale(1,1)"><g><path fill="none" stroke="none"/><text fill="#000000" stroke="none" font-family="Arial" font-size="13px" font-style="normal" font-weight="bold" text-decoration="none" x="1037.594970703125" y="1138.5">100 msec</text></g></g><g transform="translate(-46,-46) scale(1,1)"><path fill="none" stroke="#000000" d="M 1008 1040 L 1008 1064 L 1064 1064 L 1064 1096" stroke-miterlimit="10"/></g><g transform="translate(-46,-46) scale(1,1)"><path fill="none" stroke="#000000" d="M 1059.7904822439841 1085.837325142376 L 1064 1096 L 1068.2095177560159 1085.837325142376" stroke-miterlimit="10"/></g><g transform="translate(-46,-46) scale(1,1)"><path fill="#C0C0C0" stroke="none" d="M 1047 1207.5 L 1071.5 1183 L 1095 1207.5 L 1071.5 1231 L 1047 1207.5" opacity="0.2"/></g><g transform="translate(-46,-46) scale(1,1)"><path fill="#ffffff" stroke="none" d="M 1040 1200 L 1064 1176 L 1088 1200 L 1064 1224 L 1040 1200"/></g><g transform="translate(-46,-46) scale(1,1)"><path fill="none" stroke="#000000" d="M 1040 1200 L 1064 1176 L 1088 1200 L 1064 1224 L 1040 1200 L 1040 1200" stroke-miterlimit="10"/></g><g transform="translate(-46,-46) scale(1,1)"><path fill="none" stroke="#000000" d="M 1065 1144 L 1065 1176" stroke-miterlimit="10"/></g><g transform="translate(-46,-46) scale(1,1)"><path fill="none" stroke="#000000" d="M 1060.7904822439841 1165.837325142376 L 1065 1176 L 1069.2095177560159 1165.837325142376" stroke-miterlimit="10"/></g><g transform="translate(-46,-46) scale(1,1)"><path fill="none" stroke="#000000" d="M 1040 1200 L 904 1200 L 904 672 L 1048 672" stroke-miterlimit="10"/></g><g transform="translate(-46,-46) scale(1,1)"><path fill="none" stroke="#000000" d="M 1037.837325142376 676.209517756016 L 1048 672 L 1037.837325142376 667.790482243984" stroke-miterlimit="10"/></g><g transform="translate(-46,-46) scale(1,1)"><g><path fill="none" stroke="none"/><text fill="#000000" stroke="none" font-family="Arial" font-size="13px" font-style="normal" font-weight="normal" text-decoration="none" x="927.19189453125" y="1195.5">Condition failed</text></g></g><g transform="translate(-46,-46) scale(1,1)"><path fill="none" stroke="#000000" d="M 304 1024 L 680 1024 L 680 864" stroke-miterlimit="10"/></g><g transform="translate(-46,-46) scale(1,1)"><path fill="none" stroke="#000000" d="M 684.209517756016 874.1626748576241 L 680 864 L 675.790482243984 874.1626748576241" stroke-miterlimit="10"/></g><g transform="translate(-46,-46) scale(1,1)"><g><path fill="none" stroke="none"/><text fill="#000000" stroke="none" font-family="Arial" font-size="13px" font-style="normal" font-weight="normal" text-decoration="none" x="365.5" y="1020.5">Condition passed</text></g></g><g transform="translate(-46,-46) scale(1,1)"><path fill="#ffffff" stroke="none" d="M 160 1128 L 389 1128 L 399 1138 L 399 1319 L 160 1319 L 160 1128"/></g><g transform="translate(-46,-46) scale(1,1)"><path fill="none" stroke="#000000" d="M 160 1128 L 389 1128 L 399 1138 L 399 1319 L 160 1319 L 160 1128 L 160 1128" stroke-miterlimit="10"/></g><g transform="translate(-46,-46) scale(1,1)"><path fill="none" stroke="#000000" d="M 389 1128 L 389 1138 L 399 1138 L 389 1128" stroke-miterlimit="10"/></g><g transform="translate(-46,-46) scale(1,1)"><g><path fill="none" stroke="none"/><text fill="#000000" stroke="none" font-family="Arial" font-size="13px" font-style="normal" font-weight="normal" text-decoration="none" x="165" y="1146">Check if RelativeAlt &gt; 100 </text></g></g><g transform="translate(-46,-46) scale(1,1)"><g><path fill="none" stroke="none"/><text fill="#000000" stroke="none" font-family="Arial" font-size="13px" font-style="normal" font-weight="normal" text-decoration="none" x="165" y="1161">and VerticalSpeed &lt; 0 </text></g></g><g transform="translate(-46,-46) scale(1,1)"><g><path fill="none" stroke="none"/><text fill="#000000" stroke="none" font-family="Arial" font-size="13px" font-style="normal" font-weight="normal" text-decoration="none" x="165" y="1176">and LastCheckResult == true</text></g></g><g transform="translate(-46,-46) scale(1,1)"><g><path fill="none" stroke="none"/></g></g><g transform="translate(-46,-46) scale(1,1)"><g><path fill="none" stroke="none"/><text fill="#000000" stroke="none" font-family="Arial" font-size="13px" font-style="normal" font-weight="normal" text-decoration="none" x="165" y="1193">LastCheckResult is initialized as false</text><text fill="#000000" stroke="none" font-family="Arial" font-size="13px" font-style="normal" font-weight="normal" text-decoration="none" x="165" y="1206">at the start of phase, is set to false each</text><text fill="#000000" stroke="none" font-family="Arial" font-size="13px" font-style="normal" font-weight="normal" text-decoration="none" x="165" y="1219">time the first two conditions fail, and is</text><text fill="#000000" stroke="none" font-family="Arial" font-size="13px" font-style="normal" font-weight="normal" text-decoration="none" x="165" y="1232">set to true on the first cycle in which the</text><text fill="#000000" stroke="none" font-family="Arial" font-size="13px" font-style="normal" font-weight="normal" text-decoration="none" x="165" y="1245">first two conditions hold.</text></g></g><g transform="translate(-46,-46) scale(1,1)"><g><path fill="none" stroke="none"/><text fill="#000000" stroke="none" font-family="Arial" font-size="13px" font-style="normal" font-weight="normal" text-decoration="none" x="165" y="1260">This way the software switches to the</text><text fill="#000000" stroke="none" font-family="Arial" font-size="13px" font-style="normal" font-weight="normal" text-decoration="none" x="165" y="1273">next phase if and only if the conditions</text><text fill="#000000" stroke="none" font-family="Arial" font-size="13px" font-style="normal" font-weight="normal" text-decoration="none" x="165" y="1286">remain constant during two cycles.</text></g></g><g transform="translate(-46,-46) scale(1,1)"><g><path fill="none" stroke="none"/><text fill="#000000" stroke="none" font-family="Arial" font-size="13px" font-style="normal" font-weight="normal" text-decoration="none" x="165" y="1301">This method of operation is resistant</text><text fill="#000000" stroke="none" font-family="Arial" font-size="13px" font-style="normal" font-weight="normal" text-decoration="none" x="165" y="1314">only to one consecutive fault.</text></g></g><g transform="translate(-46,-46) scale(1,1)"><path fill="none" stroke="#000000" d="M 280 1048 L 280 1128" stroke-miterlimit="10" stroke-dasharray="3"/></g><g transform="translate(-46,-46) scale(1,1)"><path fill="#ffffff" stroke="none" d="M 944 1304 L 1173 1304 L 1183 1314 L 1183 1493 L 944 1493 L 944 1304"/></g><g transform="translate(-46,-46) scale(1,1)"><path fill="none" stroke="#000000" d="M 944 1304 L 1173 1304 L 1183 1314 L 1183 1493 L 944 1493 L 944 1304 L 944 1304" stroke-miterlimit="10"/></g><g transform="translate(-46,-46) scale(1,1)"><path fill="none" stroke="#000000" d="M 1173 1304 L 1173 1314 L 1183 1314 L 1173 1304" stroke-miterlimit="10"/></g><g transform="translate(-46,-46) scale(1,1)"><g><path fill="none" stroke="none"/><text fill="#000000" stroke="none" font-family="Arial" font-size="13px" font-style="normal" font-weight="normal" text-decoration="none" x="949" y="1322">Check if RelativeAlt &lt; 300 + prediction</text></g></g><g transform="translate(-46,-46) scale(1,1)"><g><path fill="none" stroke="none"/><text fill="#000000" stroke="none" font-family="Arial" font-size="13px" font-style="normal" font-weight="normal" text-decoration="none" x="949" y="1337">and LastCheckResult == true</text></g></g><g transform="translate(-46,-46) scale(1,1)"><g><path fill="none" stroke="none"/></g></g><g transform="translate(-46,-46) scale(1,1)"><g><path fill="none" stroke="none"/><text fill="#000000" stroke="none" font-family="Arial" font-size="13px" font-style="normal" font-weight="normal" text-decoration="none" x="949" y="1354">LastCheckResult is initialized as false</text><text fill="#000000" stroke="none" font-family="Arial" font-size="13px" font-style="normal" font-weight="normal" text-decoration="none" x="949" y="1367">at the start of phase, is set to false each</text><text fill="#000000" stroke="none" font-family="Arial" font-size="13px" font-style="normal" font-weight="normal" text-decoration="none" x="949" y="1380">time the first two conditions fail, and is</text><text fill="#000000" stroke="none" font-family="Arial" font-size="13px" font-style="normal" font-weight="normal" text-decoration="none" x="949" y="1393">set to true on the first cycle in which the</text><text fill="#000000" stroke="none" font-family="Arial" font-size="13px" font-style="normal" font-weight="normal" text-decoration="none" x="949" y="1406">first two conditions hold.</text></g></g><g transform="translate(-46,-46) scale(1,1)"><g><path fill="none" stroke="none"/><text fill="#000000" stroke="none" font-family="Arial" font-size="13px" font-style="normal" font-weight="normal" text-decoration="none" x="949" y="1421">This way the software switches to the</text><text fill="#000000" stroke="none" font-family="Arial" font-size="13px" font-style="normal" font-weight="normal" text-decoration="none" x="949" y="1434">next phase if and only if the conditions</text><text fill="#000000" stroke="none" font-family="Arial" font-size="13px" font-style="normal" font-weight="normal" text-decoration="none" x="949" y="1447">remain constant during two cycles.</text></g></g><g transform="translate(-46,-46) scale(1,1)"><g><path fill="none" stroke="none"/><text fill="#000000" stroke="none" font-family="Arial" font-size="13px" font-style="normal" font-weight="normal" text-decoration="none" x="949" y="1462">This method of operation is resistant</text><text fill="#000000" stroke="none" font-family="Arial" font-size="13px" font-style="normal" font-weight="normal" text-decoration="none" x="949" y="1475">only to one consecutive fault.</text></g></g><g transform="translate(-46,-46) scale(1,1)"><path fill="none" stroke="#000000" d="M 1064 1224 L 1064 1304" stroke-miterlimit="10" stroke-dasharray="3"/></g><g transform="translate(-46,-46) scale(1,1)"><path fill="none" stroke="#000000" d="M 1112 536 L 1112 608 L 1072 608 L 1072 640" stroke-miterlimit="10"/></g><g transform="translate(-46,-46) scale(1,1)"><path fill="none" stroke="#000000" d="M 1067.7904822439841 629.8373251423759 L 1072 640 L 1076.2095177560159 629.8373251423759" stroke-miterlimit="10"/></g><g transform="translate(-46,-46) scale(1,1)"><g><path fill="none" stroke="none"/><text fill="#000000" stroke="none" font-family="Arial" font-size="13px" font-style="normal" font-weight="normal" text-decoration="none" x="1114.5" y="556.5">High Profile Descent</text></g></g><g transform="translate(-46,-46) scale(1,1)"><path fill="none" stroke="#000000" d="M 544 376 L 544 456 L 368 456 L 368 600 L 272 600 L 272 640" stroke-miterlimit="10"/></g><g transform="translate(-46,-46) scale(1,1)"><path fill="none" stroke="#000000" d="M 267.790482243984 629.8373251423759 L 272 640 L 276.209517756016 629.8373251423759" stroke-miterlimit="10"/></g><g transform="translate(-46,-46) scale(1,1)"><path fill="#ffffff" stroke="none" d="M 1312 160 L 1461 160 L 1471 170 L 1471 235 L 1312 235 L 1312 160"/></g><g transform="translate(-46,-46) scale(1,1)"><path fill="none" stroke="#000000" d="M 1312 160 L 1461 160 L 1471 170 L 1471 235 L 1312 235 L 1312 160 L 1312 160" stroke-miterlimit="10"/></g><g transform="translate(-46,-46) scale(1,1)"><path fill="none" stroke="#000000" d="M 1461 160 L 1461 170 L 1471 170 L 1461 160" stroke-miterlimit="10"/></g><g transform="translate(-46,-46) scale(1,1)"><g><path fill="none" stroke="none"/><text fill="#000000" stroke="none" font-family="Arial" font-size="13px" font-style="normal" font-weight="normal" text-decoration="none" x="1317" y="178">"Mission critical data"</text><text fill="#000000" stroke="none" font-family="Arial" font-size="13px" font-style="normal" font-weight="normal" text-decoration="none" x="1317" y="191">refers to data just</text><text fill="#000000" stroke="none" font-family="Arial" font-size="13px" font-style="normal" font-weight="normal" text-decoration="none" x="1317" y="204">sufficient to make an</text><text fill="#000000" stroke="none" font-family="Arial" font-size="13px" font-style="normal" font-weight="normal" text-decoration="none" x="1317" y="217">estimate of the</text><text fill="#000000" stroke="none" font-family="Arial" font-size="13px" font-style="normal" font-weight="normal" text-decoration="none" x="1317" y="230">approximated trajectory</text></g></g><g transform="translate(-46,-46) scale(1,1)"><path fill="none" stroke="#000000" d="M 1257 197 L 1311 197" stroke-miterlimit="10" stroke-dasharray="3"/></g><g transform="translate(-46,-46) scale(1,1)"><path fill="#C0C0C0" stroke="none" d="M 1625 631 L 1773 631 Q 1783 631 1783 641 L 1783 661 Q 1783 671 1773 671 L 1625 671 Q 1615 671 1615 661 L 1615 641 Q 1615 631 1625 631 Z" opacity="0.2"/></g><g transform="translate(-46,-46) scale(1,1)"><path fill="#ffffff" stroke="none" d="M 1618 624 L 1766 624 Q 1776 624 1776 634 L 1776 654 Q 1776 664 1766 664 L 1618 664 Q 1608 664 1608 654 L 1608 634 Q 1608 624 1618 624 Z"/></g><g transform="translate(-46,-46) scale(1,1)"><path fill="none" stroke="#000000" d="M 1618 624 L 1766 624 Q 1776 624 1776 634 L 1776 654 Q 1776 664 1766 664 L 1618 664 Q 1608 664 1608 654 L 1608 634 Q 1608 624 1618 624 Z" stroke-miterlimit="10"/></g><g transform="translate(-46,-46) scale(1,1)"><g><path fill="none" stroke="none"/><text fill="#000000" stroke="none" font-family="Arial" font-size="13px" font-style="normal" font-weight="bold" text-decoration="none" x="1625.88916015625" y="643.5">Start camera recording</text></g></g><g transform="translate(-46,-46) scale(1,1)"><path fill="#C0C0C0" stroke="none" d="M 1641 711 L 1757 711 Q 1767 711 1767 721 L 1767 741 Q 1767 751 1757 751 L 1641 751 Q 1631 751 1631 741 L 1631 721 Q 1631 711 1641 711 Z" opacity="0.2"/></g><g transform="translate(-46,-46) scale(1,1)"><path fill="#ffffff" stroke="none" d="M 1634 704 L 1750 704 Q 1760 704 1760 714 L 1760 734 Q 1760 744 1750 744 L 1634 744 Q 1624 744 1624 734 L 1624 714 Q 1624 704 1634 704 Z"/></g><g transform="translate(-46,-46) scale(1,1)"><path fill="none" stroke="#000000" d="M 1634 704 L 1750 704 Q 1760 704 1760 714 L 1760 734 Q 1760 744 1750 744 L 1634 744 Q 1624 744 1624 734 L 1624 714 Q 1624 704 1634 704 Z" stroke-miterlimit="10"/></g><g transform="translate(-46,-46) scale(1,1)"><g><path fill="none" stroke="none"/><text fill="#000000" stroke="none" font-family="Arial" font-size="13px" font-style="normal" font-weight="bold" text-decoration="none" x="1639.965087890625" y="723.5">Detach heatshield</text></g></g><g transform="translate(-46,-46) scale(1,1)"><path fill="#C0C0C0" stroke="none" d="M 1641 783 L 1757 783 Q 1767 783 1767 793 L 1767 813 Q 1767 823 1757 823 L 1641 823 Q 1631 823 1631 813 L 1631 793 Q 1631 783 1641 783 Z" opacity="0.2"/></g><g transform="translate(-46,-46) scale(1,1)"><path fill="#ffffff" stroke="none" d="M 1634 776 L 1750 776 Q 1760 776 1760 786 L 1760 806 Q 1760 816 1750 816 L 1634 816 Q 1624 816 1624 806 L 1624 786 Q 1624 776 1634 776 Z"/></g><g transform="translate(-46,-46) scale(1,1)"><path fill="none" stroke="#000000" d="M 1634 776 L 1750 776 Q 1760 776 1760 786 L 1760 806 Q 1760 816 1750 816 L 1634 816 Q 1624 816 1624 806 L 1624 786 Q 1624 776 1634 776 Z" stroke-miterlimit="10"/></g><g transform="translate(-46,-46) scale(1,1)"><g><path fill="none" stroke="none"/><text fill="#000000" stroke="none" font-family="Arial" font-size="13px" font-style="normal" font-weight="bold" text-decoration="none" x="1640.330078125" y="795.5">Deploy Parachute</text></g></g><g transform="translate(-46,-46) scale(1,1)"><path fill="#C0C0C0" stroke="none" d="M 1591 863 L 1591 903 L 1805.13818359375 903 L 1815.38818359375 883.5 L 1805.13818359375 863" opacity="0.2"/></g><g transform="translate(-46,-46) scale(1,1)"><path fill="#ffffff" stroke="none" d="M 1584 856 L 1584 896 L 1798.13818359375 896 L 1808.38818359375 876.5 L 1798.13818359375 856"/></g><g transform="translate(-46,-46) scale(1,1)"><path fill="none" stroke="#000000" d="M 1584 856 L 1584 896 L 1798.13818359375 896 L 1808.38818359375 876.5 L 1798.13818359375 856 L 1584 856" stroke-miterlimit="10"/></g><g transform="translate(-46,-46) scale(1,1)"><g><path fill="none" stroke="none"/><text fill="#000000" stroke="none" font-family="Arial" font-size="13px" font-style="normal" font-weight="bold" text-decoration="none" x="1608.748779296875" y="875.5">Signal status to ground station</text></g></g><g transform="translate(-46,-46) scale(1,1)"><path fill="none" stroke="#000000" d="M 1691 664 L 1691 704" stroke-miterlimit="10"/></g><g transform="translate(-46,-46) scale(1,1)"><path fill="none" stroke="#000000" d="M 1686.7904822439841 693.8373251423759 L 1691 704 L 1695.2095177560159 693.8373251423759" stroke-miterlimit="10"/></g><g transform="translate(-46,-46) scale(1,1)"><path fill="none" stroke="#000000" d="M 1692 744 L 1692 776" stroke-miterlimit="10"/></g><g transform="translate(-46,-46) scale(1,1)"><path fill="none" stroke="#000000" d="M 1687.7904822439841 765.8373251423759 L 1692 776 L 1696.2095177560159 765.8373251423759" stroke-miterlimit="10"/></g><g transform="translate(-46,-46) scale(1,1)"><path fill="none" stroke="#000000" d="M 1691 816 L 1691 856" stroke-miterlimit="10"/></g><g transform="translate(-46,-46) scale(1,1)"><path fill="none" stroke="#000000" d="M 1686.7904822439841 845.8373251423759 L 1691 856 L 1695.2095177560159 845.8373251423759" stroke-miterlimit="10"/></g><g transform="translate(-46,-46) scale(1,1)"><path fill="none" stroke="#000000" d="M 1088 1200 L 1496 1200 L 1496 640 L 1608 640" stroke-miterlimit="10"/></g><g transform="translate(-46,-46) scale(1,1)"><path fill="none" stroke="#000000" d="M 1597.837325142376 644.209517756016 L 1608 640 L 1597.837325142376 635.790482243984" stroke-miterlimit="10"/></g><g transform="translate(-46,-46) scale(1,1)"><g><path fill="none" stroke="none"/><text fill="#000000" stroke="none" font-family="Arial" font-size="13px" font-style="normal" font-weight="normal" text-decoration="none" x="1166.5" y="1196.5">Condition passed</text></g></g><g transform="translate(-46,-46) scale(1,1)"><path fill="#C0C0C0" stroke="none" d="M 2295 663.5 L 2319.5 639 L 2343 663.5 L 2319.5 687 L 2295 663.5" opacity="0.2"/></g><g transform="translate(-46,-46) scale(1,1)"><path fill="#ffffff" stroke="none" d="M 2288 656 L 2312 632 L 2336 656 L 2312 680 L 2288 656"/></g><g transform="translate(-46,-46) scale(1,1)"><path fill="none" stroke="#000000" d="M 2288 656 L 2312 632 L 2336 656 L 2312 680 L 2288 656 L 2288 656" stroke-miterlimit="10"/></g><g transform="translate(-46,-46) scale(1,1)"><path fill="#C0C0C0" stroke="none" d="M 2295 751.5 L 2319.5 727 L 2343 751.5 L 2319.5 775 L 2295 751.5" opacity="0.2"/></g><g transform="translate(-46,-46) scale(1,1)"><path fill="#ffffff" stroke="none" d="M 2288 744 L 2312 720 L 2336 744 L 2312 768 L 2288 744"/></g><g transform="translate(-46,-46) scale(1,1)"><path fill="none" stroke="#000000" d="M 2288 744 L 2312 720 L 2336 744 L 2312 768 L 2288 744 L 2288 744" stroke-miterlimit="10"/></g><g transform="translate(-46,-46) scale(1,1)"><path fill="#C0C0C0" stroke="none" d="M 2295 871.5 L 2319.5 847 L 2343 871.5 L 2319.5 895 L 2295 871.5" opacity="0.2"/></g><g transform="translate(-46,-46) scale(1,1)"><path fill="#ffffff" stroke="none" d="M 2288 864 L 2312 840 L 2336 864 L 2312 888 L 2288 864"/></g><g transform="translate(-46,-46) scale(1,1)"><path fill="none" stroke="#000000" d="M 2288 864 L 2312 840 L 2336 864 L 2312 888 L 2288 864 L 2288 864" stroke-miterlimit="10"/></g><g transform="translate(-46,-46) scale(1,1)"><path fill="#C0C0C0" stroke="none" d="M 2185 791 L 2285 791 Q 2295 791 2295 801 L 2295 821 Q 2295 831 2285 831 L 2185 831 Q 2175 831 2175 821 L 2175 801 Q 2175 791 2185 791 Z" opacity="0.2"/></g><g transform="translate(-46,-46) scale(1,1)"><path fill="#ffffff" stroke="none" d="M 2178 784 L 2278 784 Q 2288 784 2288 794 L 2288 814 Q 2288 824 2278 824 L 2178 824 Q 2168 824 2168 814 L 2168 794 Q 2168 784 2178 784 Z"/></g><g transform="translate(-46,-46) scale(1,1)"><path fill="none" stroke="#000000" d="M 2178 784 L 2278 784 Q 2288 784 2288 794 L 2288 814 Q 2288 824 2278 824 L 2178 824 Q 2168 824 2168 814 L 2168 794 Q 2168 784 2178 784 Z" stroke-miterlimit="10"/></g><g transform="translate(-46,-46) scale(1,1)"><g><path fill="none" stroke="none"/><text fill="#000000" stroke="none" font-family="Arial" font-size="13px" font-style="normal" font-weight="bold" text-decoration="none" x="2183.563232421875" y="803.5">Activate buzzer</text></g></g><g transform="translate(-46,-46) scale(1,1)"><path fill="#C0C0C0" stroke="none" d="M 2353 791 L 2469 791 Q 2479 791 2479 801 L 2479 821 Q 2479 831 2469 831 L 2353 831 Q 2343 831 2343 821 L 2343 801 Q 2343 791 2353 791 Z" opacity="0.2"/></g><g transform="translate(-46,-46) scale(1,1)"><path fill="#ffffff" stroke="none" d="M 2346 784 L 2462 784 Q 2472 784 2472 794 L 2472 814 Q 2472 824 2462 824 L 2346 824 Q 2336 824 2336 814 L 2336 794 Q 2336 784 2346 784 Z"/></g><g transform="translate(-46,-46) scale(1,1)"><path fill="none" stroke="#000000" d="M 2346 784 L 2462 784 Q 2472 784 2472 794 L 2472 814 Q 2472 824 2462 824 L 2346 824 Q 2336 824 2336 814 L 2336 794 Q 2336 784 2346 784 Z" stroke-miterlimit="10"/></g><g transform="translate(-46,-46) scale(1,1)"><g><path fill="none" stroke="none"/><text fill="#000000" stroke="none" font-family="Arial" font-size="13px" font-style="normal" font-weight="bold" text-decoration="none" x="2351.974609375" y="803.5">Deactivate buzzer</text></g></g><g transform="translate(-46,-46) scale(1,1)"><path fill="none" stroke="#000000" d="M 2336 744 L 2400 744 L 2400 784" stroke-miterlimit="10"/></g><g transform="translate(-46,-46) scale(1,1)"><path fill="none" stroke="#000000" d="M 2395.790482243984 773.8373251423759 L 2400 784 L 2404.209517756016 773.8373251423759" stroke-miterlimit="10"/></g><g transform="translate(-46,-46) scale(1,1)"><g><path fill="none" stroke="none"/><text fill="#000000" stroke="none" font-family="Arial" font-size="13px" font-style="normal" font-weight="normal" text-decoration="none" x="2350.5" y="739.5">Even cycle</text></g></g><g transform="translate(-46,-46) scale(1,1)"><path fill="none" stroke="#000000" d="M 2288 744 L 2232 744 L 2232 784" stroke-miterlimit="10"/></g><g transform="translate(-46,-46) scale(1,1)"><path fill="none" stroke="#000000" d="M 2227.790482243984 773.8373251423759 L 2232 784 L 2236.209517756016 773.8373251423759" stroke-miterlimit="10"/></g><g transform="translate(-46,-46) scale(1,1)"><g><path fill="none" stroke="none"/><text fill="#000000" stroke="none" font-family="Arial" font-size="13px" font-style="normal" font-weight="normal" text-decoration="none" x="2158.5" y="737.5">Odd cycle and RAlt &lt; 50</text></g></g><g transform="translate(-46,-46) scale(1,1)"><path fill="none" stroke="#000000" d="M 2232 824 L 2232 864 L 2288 864" stroke-miterlimit="10"/></g><g transform="translate(-46,-46) scale(1,1)"><path fill="none" stroke="#000000" d="M 2277.837325142376 868.209517756016 L 2288 864 L 2277.837325142376 859.790482243984" stroke-miterlimit="10"/></g><g transform="translate(-46,-46) scale(1,1)"><path fill="none" stroke="#000000" d="M 2400 824 L 2400 864 L 2336 864" stroke-miterlimit="10"/></g><g transform="translate(-46,-46) scale(1,1)"><path fill="none" stroke="#000000" d="M 2346.162674857624 859.790482243984 L 2336 864 L 2346.162674857624 868.209517756016" stroke-miterlimit="10"/></g><g transform="translate(-46,-46) scale(1,1)"><path fill="none" stroke="#000000" d="M 2312 680 L 2312 720" stroke-miterlimit="10"/></g><g transform="translate(-46,-46) scale(1,1)"><path fill="none" stroke="#000000" d="M 2307.790482243984 709.8373251423759 L 2312 720 L 2316.209517756016 709.8373251423759" stroke-miterlimit="10"/></g><g transform="translate(-46,-46) scale(1,1)"><g><path fill="none" stroke="none"/><text fill="#000000" stroke="none" font-family="Arial" font-size="13px" font-style="normal" font-weight="normal" text-decoration="none" x="2319.5" y="705.5">No transmission</text></g></g><g transform="translate(-46,-46) scale(1,1)"><path fill="#C0C0C0" stroke="none" d="M 2215 927 L 2423 927 L 2423 967 L 2215 967 L 2225.25 947.5" opacity="0.2"/></g><g transform="translate(-46,-46) scale(1,1)"><path fill="#ffffff" stroke="none" d="M 2208 920 L 2416 920 L 2416 960 L 2208 960 L 2218.25 940.5"/></g><g transform="translate(-46,-46) scale(1,1)"><path fill="none" stroke="#000000" d="M 2208 920 L 2416 920 L 2416 960 L 2208 960 L 2218.25 940.5 L 2208 920" stroke-miterlimit="10"/></g><g transform="translate(-46,-46) scale(1,1)"><g><path fill="none" stroke="none"/><text fill="#000000" stroke="none" font-family="Arial" font-size="13px" font-style="normal" font-weight="bold" text-decoration="none" x="2229.991455078125" y="939.5">Gather data from all sensors</text></g></g><g transform="translate(-46,-46) scale(1,1)"><path fill="#C0C0C0" stroke="none" d="M 2191 999 L 2191 1039 L 2436.75 1039 L 2447 1019.5 L 2436.75 999" opacity="0.2"/></g><g transform="translate(-46,-46) scale(1,1)"><path fill="#ffffff" stroke="none" d="M 2184 992 L 2184 1032 L 2429.75 1032 L 2440 1012.5 L 2429.75 992"/></g><g transform="translate(-46,-46) scale(1,1)"><path fill="none" stroke="#000000" d="M 2184 992 L 2184 1032 L 2429.75 1032 L 2440 1012.5 L 2429.75 992 L 2184 992" stroke-miterlimit="10"/></g><g transform="translate(-46,-46) scale(1,1)"><g><path fill="none" stroke="none"/><text fill="#000000" stroke="none" font-family="Arial" font-size="13px" font-style="normal" font-weight="bold" text-decoration="none" x="2218.0546875" y="1011.5">Send telemetry to ground station</text></g></g><g transform="translate(-46,-46) scale(1,1)"><path fill="none" stroke="#000000" d="M 2312 888 L 2312 920" stroke-miterlimit="10"/></g><g transform="translate(-46,-46) scale(1,1)"><path fill="none" stroke="#000000" d="M 2307.790482243984 909.8373251423759 L 2312 920 L 2316.209517756016 909.8373251423759" stroke-miterlimit="10"/></g><g transform="translate(-46,-46) scale(1,1)"><path fill="none" stroke="#000000" d="M 2311 960 L 2311 992" stroke-miterlimit="10"/></g><g transform="translate(-46,-46) scale(1,1)"><path fill="none" stroke="#000000" d="M 2306.790482243984 981.8373251423759 L 2311 992 L 2315.209517756016 981.8373251423759" stroke-miterlimit="10"/></g><g transform="translate(-46,-46) scale(1,1)"><path fill="none" stroke="#000000" d="M 1808 876 L 1968 876 L 1968 792" stroke-miterlimit="10"/></g><g transform="translate(-46,-46) scale(1,1)"><path fill="none" stroke="#000000" d="M 1972.2095177560159 802.1626748576241 L 1968 792 L 1963.7904822439841 802.1626748576241" stroke-miterlimit="10"/></g><g transform="translate(-46,-46) scale(1,1)"><path fill="#ffffff" stroke="none" d="M 2300.5 1072 L 2323.5 1072 L 2300.5 1095 L 2323.5 1095 L 2300.5 1072"/></g><g transform="translate(-46,-46) scale(1,1)"><path fill="none" stroke="#000000" d="M 2300.5 1072 L 2323.5 1072 L 2300.5 1095 L 2323.5 1095 L 2300.5 1072 L 2300.5 1072" stroke-miterlimit="10"/></g><g transform="translate(-46,-46) scale(1,1)"><g><path fill="none" stroke="none"/><text fill="#000000" stroke="none" font-family="Arial" font-size="13px" font-style="normal" font-weight="bold" text-decoration="none" x="2280.20458984375" y="1114.5">1000 msec</text></g></g><g transform="translate(-46,-46) scale(1,1)"><path fill="none" stroke="#000000" d="M 2311 1032 L 2311 1072" stroke-miterlimit="10"/></g><g transform="translate(-46,-46) scale(1,1)"><path fill="none" stroke="#000000" d="M 2306.790482243984 1061.837325142376 L 2311 1072 L 2315.209517756016 1061.837325142376" stroke-miterlimit="10"/></g><g transform="translate(-46,-46) scale(1,1)"><path fill="none" stroke="#000000" d="M 1112 304 L 1112 488" stroke-miterlimit="10"/></g><g transform="translate(-46,-46) scale(1,1)"><path fill="none" stroke="#000000" d="M 1107.7904822439841 477.83732514237585 L 1112 488 L 1116.2095177560159 477.83732514237585" stroke-miterlimit="10"/></g><g transform="translate(-46,-46) scale(1,1)"><path fill="#C0C0C0" stroke="none" d="M 2311 176.5 C 2311 171.2532944 2315.2532944 167 2320.5 167 C 2325.7467056 167 2330 171.2532944 2330 176.5 C 2330 181.7467056 2325.7467056 186 2320.5 186 C 2315.2532944 186 2311 181.7467056 2311 176.5 Z" opacity="0.2"/></g><g transform="translate(-46,-46) scale(1,1)"><path fill="#000000" stroke="none" d="M 2304 169.5 C 2304 164.2532944 2308.2532944 160 2313.5 160 C 2318.7467056 160 2323 164.2532944 2323 169.5 C 2323 174.7467056 2318.7467056 179 2313.5 179 C 2308.2532944 179 2304 174.7467056 2304 169.5 Z"/></g><g transform="translate(-46,-46) scale(1,1)"><path fill="#C0C0C0" stroke="none" d="M 2233 215 L 2405 215 Q 2415 215 2415 225 L 2415 245 Q 2415 255 2405 255 L 2233 255 Q 2223 255 2223 245 L 2223 225 Q 2223 215 2233 215 Z" opacity="0.2"/></g><g transform="translate(-46,-46) scale(1,1)"><path fill="#ffffff" stroke="none" d="M 2226 208 L 2398 208 Q 2408 208 2408 218 L 2408 238 Q 2408 248 2398 248 L 2226 248 Q 2216 248 2216 238 L 2216 218 Q 2216 208 2226 208 Z"/></g><g transform="translate(-46,-46) scale(1,1)"><path fill="none" stroke="#000000" d="M 2226 208 L 2398 208 Q 2408 208 2408 218 L 2408 238 Q 2408 248 2398 248 L 2226 248 Q 2216 248 2216 238 L 2216 218 Q 2216 208 2226 208 Z" stroke-miterlimit="10"/></g><g transform="translate(-46,-46) scale(1,1)"><g><path fill="none" stroke="none"/><text fill="#000000" stroke="none" font-family="Arial" font-size="13px" font-style="normal" font-weight="bold" text-decoration="none" x="2232.873291015625" y="227.5">Execute emergency routine</text></g></g><g transform="translate(-46,-46) scale(1,1)"><path fill="#C0C0C0" stroke="none" d="M 2183 287 L 2183 327 L 2452.75 327 L 2463 307.5 L 2452.75 287" opacity="0.2"/></g><g transform="translate(-46,-46) scale(1,1)"><path fill="#ffffff" stroke="none" d="M 2176 280 L 2176 320 L 2445.75 320 L 2456 300.5 L 2445.75 280"/></g><g transform="translate(-46,-46) scale(1,1)"><path fill="none" stroke="#000000" d="M 2176 280 L 2176 320 L 2445.75 320 L 2456 300.5 L 2445.75 280 L 2176 280" stroke-miterlimit="10"/></g><g transform="translate(-46,-46) scale(1,1)"><g><path fill="none" stroke="none"/><text fill="#000000" stroke="none" font-family="Arial" font-size="13px" font-style="normal" font-weight="bold" text-decoration="none" x="2213.7392578125" y="299.5">Signal routine completion to ground</text></g></g><g transform="translate(-46,-46) scale(1,1)"><path fill="#C0C0C0" stroke="none" d="M 2303 375 C 2303 366.1634432 2310.3873008 359 2319.5 359 C 2328.6126992 359 2336 366.1634432 2336 375 C 2336 383.8365568 2328.6126992 391 2319.5 391 C 2310.3873008 391 2303 383.8365568 2303 375 Z" opacity="0.2"/></g><g transform="translate(-46,-46) scale(1,1)"><path fill="#ffffff" stroke="none" d="M 2296 368 C 2296 359.1634432 2303.3873008 352 2312.5 352 C 2321.6126992 352 2329 359.1634432 2329 368 C 2329 376.8365568 2321.6126992 384 2312.5 384 C 2303.3873008 384 2296 376.8365568 2296 368 Z"/></g><g transform="translate(-46,-46) scale(1,1)"><path fill="none" stroke="#000000" d="M 2296 368 C 2296 359.1634432 2303.3873008 352 2312.5 352 C 2321.6126992 352 2329 359.1634432 2329 368 C 2329 376.8365568 2321.6126992 384 2312.5 384 C 2303.3873008 384 2296 376.8365568 2296 368 Z" stroke-miterlimit="10"/></g><g transform="translate(-46,-46) scale(1,1)"><path fill="none" stroke="#000000" d="M 2300 356 L 2324 380" stroke-miterlimit="10"/></g><g transform="translate(-46,-46) scale(1,1)"><path fill="none" stroke="#000000" d="M 2324 356 L 2300 380" stroke-miterlimit="10"/></g><g transform="translate(-46,-46) scale(1,1)"><path fill="none" stroke="#000000" d="M 2312 248 L 2312 280" stroke-miterlimit="10"/></g><g transform="translate(-46,-46) scale(1,1)"><path fill="none" stroke="#000000" d="M 2307.790482243984 269.83732514237585 L 2312 280 L 2316.209517756016 269.83732514237585" stroke-miterlimit="10"/></g><g transform="translate(-46,-46) scale(1,1)"><path fill="none" stroke="#000000" d="M 2312 320 L 2312 352" stroke-miterlimit="10"/></g><g transform="translate(-46,-46) scale(1,1)"><path fill="none" stroke="#000000" d="M 2307.790482243984 341.83732514237585 L 2312 352 L 2316.209517756016 341.83732514237585" stroke-miterlimit="10"/></g><g transform="translate(-46,-46) scale(1,1)"><path fill="none" stroke="#000000" d="M 2272 1088 L 2152 1088 L 2152 664 L 2288 664" stroke-miterlimit="10"/></g><g transform="translate(-46,-46) scale(1,1)"><path fill="none" stroke="#000000" d="M 2277.837325142376 668.209517756016 L 2288 664 L 2277.837325142376 659.790482243984" stroke-miterlimit="10"/></g><g transform="translate(-46,-46) scale(1,1)"><path fill="#C0C0C0" stroke="none" d="M 535 831 L 535 871 L 828.75 871 L 839 851.5 L 828.75 831" opacity="0.2"/></g><g transform="translate(-46,-46) scale(1,1)"><path fill="#ffffff" stroke="none" d="M 528 824 L 528 864 L 821.75 864 L 832 844.5 L 821.75 824"/></g><g transform="translate(-46,-46) scale(1,1)"><path fill="none" stroke="#000000" d="M 528 824 L 528 864 L 821.75 864 L 832 844.5 L 821.75 824 L 528 824" stroke-miterlimit="10"/></g><g transform="translate(-46,-46) scale(1,1)"><g><path fill="none" stroke="none"/><text fill="#000000" stroke="none" font-family="Arial" font-size="13px" font-style="normal" font-weight="bold" text-decoration="none" x="558.22021484375" y="843.5">Save phase change on secondary storage</text></g></g><g transform="translate(-46,-46) scale(1,1)"><path fill="#C0C0C0" stroke="none" d="M 1831 759 L 1831 799 L 2116.75 799 L 2127 779.5 L 2116.75 759" opacity="0.2"/></g><g transform="translate(-46,-46) scale(1,1)"><path fill="#ffffff" stroke="none" d="M 1824 752 L 1824 792 L 2109.75 792 L 2120 772.5 L 2109.75 752"/></g><g transform="translate(-46,-46) scale(1,1)"><path fill="none" stroke="#000000" d="M 1824 752 L 1824 792 L 2109.75 792 L 2120 772.5 L 2109.75 752 L 1824 752" stroke-miterlimit="10"/></g><g transform="translate(-46,-46) scale(1,1)"><g><path fill="none" stroke="none"/><text fill="#000000" stroke="none" font-family="Arial" font-size="13px" font-style="normal" font-weight="bold" text-decoration="none" x="1850.22021484375" y="771.5">Save phase change on secondary storage</text></g></g><g transform="translate(-46,-46) scale(1,1)"><path fill="none" stroke="#000000" d="M 680 824 L 680 656 L 1048 656" stroke-miterlimit="10"/></g><g transform="translate(-46,-46) scale(1,1)"><path fill="none" stroke="#000000" d="M 1037.837325142376 660.209517756016 L 1048 656 L 1037.837325142376 651.790482243984" stroke-miterlimit="10"/></g><g transform="translate(-46,-46) scale(1,1)"><path fill="none" stroke="#000000" d="M 1968 752 L 1968 648 L 2288 648" stroke-miterlimit="10"/></g><g transform="translate(-46,-46) scale(1,1)"><path fill="none" stroke="#000000" d="M 2277.837325142376 652.209517756016 L 2288 648 L 2277.837325142376 643.790482243984" stroke-miterlimit="10"/></g><g transform="translate(-46,-46) scale(1,1)"><path fill="none" stroke="#000000" d="M 1136 512 L 1968 512 L 1968 608 L 2312 608 L 2312 632" stroke-miterlimit="10"/></g><g transform="translate(-46,-46) scale(1,1)"><path fill="none" stroke="#000000" d="M 2307.790482243984 621.8373251423759 L 2312 632 L 2316.209517756016 621.8373251423759" stroke-miterlimit="10"/></g><g transform="translate(-46,-46) scale(1,1)"><g><path fill="none" stroke="none"/><text fill="#000000" stroke="none" font-family="Arial" font-size="13px" font-style="normal" font-weight="normal" text-decoration="none" x="1494.5" y="507.5">Low Profile Descent and Landing</text></g></g><g transform="translate(-46,-46) scale(1,1)"><path fill="#C0C0C0" stroke="none" d="M 457 655 L 653 655 Q 663 655 663 665 L 663 685 Q 663 695 653 695 L 457 695 Q 447 695 447 685 L 447 665 Q 447 655 457 655 Z" opacity="0.2"/></g><g transform="translate(-46,-46) scale(1,1)"><path fill="#ffffff" stroke="none" d="M 450 648 L 646 648 Q 656 648 656 658 L 656 678 Q 656 688 646 688 L 450 688 Q 440 688 440 678 L 440 658 Q 440 648 450 648 Z"/></g><g transform="translate(-46,-46) scale(1,1)"><path fill="none" stroke="#000000" d="M 450 648 L 646 648 Q 656 648 656 658 L 656 678 Q 656 688 646 688 L 450 688 Q 440 688 440 678 L 440 658 Q 440 648 450 648 Z" stroke-miterlimit="10"/></g><g transform="translate(-46,-46) scale(1,1)"><g><path fill="none" stroke="none"/><text fill="#000000" stroke="none" font-family="Arial" font-size="13px" font-style="normal" font-weight="bold" text-decoration="none" x="456.94921875" y="667.5">Handle the emergency interrupt</text></g></g><g transform="translate(-46,-46) scale(1,1)"><path fill="none" stroke="#000000" d="M 304 664 L 440 664" stroke-miterlimit="10"/></g><g transform="translate(-46,-46) scale(1,1)"><path fill="none" stroke="#000000" d="M 429.83732514237585 668.209517756016 L 440 664 L 429.83732514237585 659.790482243984" stroke-miterlimit="10"/></g><g transform="translate(-46,-46) scale(1,1)"><g><path fill="none" stroke="none"/><text fill="#000000" stroke="none" font-family="Arial" font-size="13px" font-style="normal" font-weight="normal" text-decoration="none" x="305.5" y="684.5">Transmission recieved</text></g></g><g transform="translate(-46,-46) scale(1,1)"><path fill="none" stroke="#000000" d="M 360 639 L 384 639" stroke-miterlimit="10"/></g><g transform="translate(-46,-46) scale(1,1)"><path fill="none" stroke="#000000" d="M 384 639 L 360 653" stroke-miterlimit="10"/></g><g transform="translate(-46,-46) scale(1,1)"><path fill="none" stroke="#000000" d="M 360 653 L 384 653" stroke-miterlimit="10"/></g><g transform="translate(-46,-46) scale(1,1)"><path fill="none" stroke="#000000" d="M 384 653 L 379 658" stroke-miterlimit="10"/></g><g transform="translate(-46,-46) scale(1,1)"><path fill="none" stroke="#000000" d="M 384 653 L 379 648" stroke-miterlimit="10"/></g><g transform="translate(-46,-46) scale(1,1)"><path fill="#C0C0C0" stroke="none" d="M 1249 655 L 1453 655 Q 1463 655 1463 665 L 1463 685 Q 1463 695 1453 695 L 1249 695 Q 1239 695 1239 685 L 1239 665 Q 1239 655 1249 655 Z" opacity="0.2"/></g><g transform="translate(-46,-46) scale(1,1)"><path fill="#ffffff" stroke="none" d="M 1242 648 L 1446 648 Q 1456 648 1456 658 L 1456 678 Q 1456 688 1446 688 L 1242 688 Q 1232 688 1232 678 L 1232 658 Q 1232 648 1242 648 Z"/></g><g transform="translate(-46,-46) scale(1,1)"><path fill="none" stroke="#000000" d="M 1242 648 L 1446 648 Q 1456 648 1456 658 L 1456 678 Q 1456 688 1446 688 L 1242 688 Q 1232 688 1232 678 L 1232 658 Q 1232 648 1242 648 Z" stroke-miterlimit="10"/></g><g transform="translate(-46,-46) scale(1,1)"><g><path fill="none" stroke="none"/><text fill="#000000" stroke="none" font-family="Arial" font-size="13px" font-style="normal" font-weight="bold" text-decoration="none" x="1252.94921875" y="667.5">Handle the emergency interrupt</text></g></g><g transform="translate(-46,-46) scale(1,1)"><path fill="none" stroke="#000000" d="M 1096 664 L 1232 664" stroke-miterlimit="10"/></g><g transform="translate(-46,-46) scale(1,1)"><path fill="none" stroke="#000000" d="M 1221.837325142376 668.209517756016 L 1232 664 L 1221.837325142376 659.790482243984" stroke-miterlimit="10"/></g><g transform="translate(-46,-46) scale(1,1)"><g><path fill="none" stroke="none"/><text fill="#000000" stroke="none" font-family="Arial" font-size="13px" font-style="normal" font-weight="normal" text-decoration="none" x="1094.5" y="684.5">Transmission recieved</text></g></g><g transform="translate(-46,-46) scale(1,1)"><path fill="none" stroke="#000000" d="M 1152 639 L 1176 639" stroke-miterlimit="10"/></g><g transform="translate(-46,-46) scale(1,1)"><path fill="none" stroke="#000000" d="M 1176 639 L 1152 653" stroke-miterlimit="10"/></g><g transform="translate(-46,-46) scale(1,1)"><path fill="none" stroke="#000000" d="M 1152 653 L 1176 653" stroke-miterlimit="10"/></g><g transform="translate(-46,-46) scale(1,1)"><path fill="none" stroke="#000000" d="M 1176 653 L 1171 658" stroke-miterlimit="10"/></g><g transform="translate(-46,-46) scale(1,1)"><path fill="none" stroke="#000000" d="M 1176 653 L 1171 648" stroke-miterlimit="10"/></g><g transform="translate(-46,-46) scale(1,1)"><path fill="#C0C0C0" stroke="none" d="M 2489 647 L 2693 647 Q 2703 647 2703 657 L 2703 677 Q 2703 687 2693 687 L 2489 687 Q 2479 687 2479 677 L 2479 657 Q 2479 647 2489 647 Z" opacity="0.2"/></g><g transform="translate(-46,-46) scale(1,1)"><path fill="#ffffff" stroke="none" d="M 2482 640 L 2686 640 Q 2696 640 2696 650 L 2696 670 Q 2696 680 2686 680 L 2482 680 Q 2472 680 2472 670 L 2472 650 Q 2472 640 2482 640 Z"/></g><g transform="translate(-46,-46) scale(1,1)"><path fill="none" stroke="#000000" d="M 2482 640 L 2686 640 Q 2696 640 2696 650 L 2696 670 Q 2696 680 2686 680 L 2482 680 Q 2472 680 2472 670 L 2472 650 Q 2472 640 2482 640 Z" stroke-miterlimit="10"/></g><g transform="translate(-46,-46) scale(1,1)"><g><path fill="none" stroke="none"/><text fill="#000000" stroke="none" font-family="Arial" font-size="13px" font-style="normal" font-weight="bold" text-decoration="none" x="2492.94921875" y="659.5">Handle the emergency interrupt</text></g></g><g transform="translate(-46,-46) scale(1,1)"><path fill="none" stroke="#000000" d="M 2336 656 L 2472 656" stroke-miterlimit="10"/></g><g transform="translate(-46,-46) scale(1,1)"><path fill="none" stroke="#000000" d="M 2461.837325142376 660.209517756016 L 2472 656 L 2461.837325142376 651.790482243984" stroke-miterlimit="10"/></g><g transform="translate(-46,-46) scale(1,1)"><g><path fill="none" stroke="none"/><text fill="#000000" stroke="none" font-family="Arial" font-size="13px" font-style="normal" font-weight="normal" text-decoration="none" x="2334.5" y="676.5">Transmission recieved</text></g></g><g transform="translate(-46,-46) scale(1,1)"><path fill="none" stroke="#000000" d="M 2392 631 L 2416 631" stroke-miterlimit="10"/></g><g transform="translate(-46,-46) scale(1,1)"><path fill="none" stroke="#000000" d="M 2416 631 L 2392 645" stroke-miterlimit="10"/></g><g transform="translate(-46,-46) scale(1,1)"><path fill="none" stroke="#000000" d="M 2392 645 L 2416 645" stroke-miterlimit="10"/></g><g transform="translate(-46,-46) scale(1,1)"><path fill="none" stroke="#000000" d="M 2416 645 L 2411 650" stroke-miterlimit="10"/></g><g transform="translate(-46,-46) scale(1,1)"><path fill="none" stroke="#000000" d="M 2416 645 L 2411 640" stroke-miterlimit="10"/></g><g transform="translate(-46,-46) scale(1,1)"><path fill="#C0C0C0" stroke="none" d="M 71 263 L 71 303 L 436.75 303 L 447 283.5 L 436.75 263" opacity="0.2"/></g><g transform="translate(-46,-46) scale(1,1)"><path fill="#ffffff" stroke="none" d="M 64 256 L 64 296 L 429.75 296 L 440 276.5 L 429.75 256"/></g><g transform="translate(-46,-46) scale(1,1)"><path fill="none" stroke="#000000" d="M 64 256 L 64 296 L 429.75 296 L 440 276.5 L 429.75 256 L 64 256" stroke-miterlimit="10"/></g><g transform="translate(-46,-46) scale(1,1)"><g><path fill="none" stroke="none"/><text fill="#000000" stroke="none" font-family="Arial" font-size="13px" font-style="normal" font-weight="bold" text-decoration="none" x="95.933349609375" y="275.5">Save mission critical parameters to secondary storage</text></g></g><g transform="translate(-46,-46) scale(1,1)"><path fill="none" stroke="#000000" d="M 440 276 L 472 276" stroke-miterlimit="10"/></g><g transform="translate(-46,-46) scale(1,1)"><path fill="none" stroke="#000000" d="M 461.83732514237585 280.209517756016 L 472 276 L 461.83732514237585 271.790482243984" stroke-miterlimit="10"/></g><g transform="translate(-46,-46) scale(1,1)"><path fill="#ffffff" stroke="none" d="M 528 568 L 595.97900390625 568 L 605.97900390625 578 L 605.97900390625 606 L 528 606 L 528 568"/></g><g transform="translate(-46,-46) scale(1,1)"><path fill="none" stroke="#000000" d="M 528 568 L 595.97900390625 568 L 605.97900390625 578 L 605.97900390625 606 L 528 606 L 528 568 L 528 568" stroke-miterlimit="10"/></g><g transform="translate(-46,-46) scale(1,1)"><path fill="none" stroke="#000000" d="M 595.97900390625 568 L 595.97900390625 578 L 605.97900390625 578 L 595.97900390625 568" stroke-miterlimit="10"/></g><g transform="translate(-46,-46) scale(1,1)"><g><path fill="none" stroke="none"/><text fill="#000000" stroke="none" font-family="Arial" font-size="13px" font-style="normal" font-weight="normal" text-decoration="none" x="533" y="586">Defined</text><text fill="#000000" stroke="none" font-family="Arial" font-size="13px" font-style="normal" font-weight="normal" text-decoration="none" x="533" y="599">separately</text></g></g><g transform="translate(-46,-46) scale(1,1)"><path fill="none" stroke="#000000" d="M 561 607 L 561 648" stroke-miterlimit="10" stroke-dasharray="3"/></g><g transform="translate(-46,-46) scale(1,1)"><path fill="#ffffff" stroke="none" d="M 1368 576 L 1435.97900390625 576 L 1445.97900390625 586 L 1445.97900390625 614 L 1368 614 L 1368 576"/></g><g transform="translate(-46,-46) scale(1,1)"><path fill="none" stroke="#000000" d="M 1368 576 L 1435.97900390625 576 L 1445.97900390625 586 L 1445.97900390625 614 L 1368 614 L 1368 576 L 1368 576" stroke-miterlimit="10"/></g><g transform="translate(-46,-46) scale(1,1)"><path fill="none" stroke="#000000" d="M 1435.97900390625 576 L 1435.97900390625 586 L 1445.97900390625 586 L 1435.97900390625 576" stroke-miterlimit="10"/></g><g transform="translate(-46,-46) scale(1,1)"><g><path fill="none" stroke="none"/><text fill="#000000" stroke="none" font-family="Arial" font-size="13px" font-style="normal" font-weight="normal" text-decoration="none" x="1373" y="594">Defined</text></g></g><g transform="translate(-46,-46) scale(1,1)"><g><path fill="none" stroke="none"/><text fill="#000000" stroke="none" font-family="Arial" font-size="13px" font-style="normal" font-weight="normal" text-decoration="none" x="1373" y="609">separately</text></g></g><g transform="translate(-46,-46) scale(1,1)"><path fill="none" stroke="#000000" d="M 1386 615 L 1386 648" stroke-miterlimit="10" stroke-dasharray="3"/></g><g transform="translate(-46,-46) scale(1,1)"><path fill="#ffffff" stroke="none" d="M 2536 536 L 2594 536 L 2604 546 L 2604 574 L 2536 574 L 2536 536"/></g><g transform="translate(-46,-46) scale(1,1)"><path fill="none" stroke="#000000" d="M 2536 536 L 2594 536 L 2604 546 L 2604 574 L 2536 574 L 2536 536 L 2536 536" stroke-miterlimit="10"/></g><g transform="translate(-46,-46) scale(1,1)"><path fill="none" stroke="#000000" d="M 2594 536 L 2594 546 L 2604 546 L 2594 536" stroke-miterlimit="10"/></g><g transform="translate(-46,-46) scale(1,1)"><g><path fill="none" stroke="none"/><text fill="#000000" stroke="none" font-family="Arial" font-size="13px" font-style="normal" font-weight="normal" text-decoration="none" x="2541" y="554">Defined</text><text fill="#000000" stroke="none" font-family="Arial" font-size="13px" font-style="normal" font-weight="normal" text-decoration="none" x="2541" y="567">above</text></g></g><g transform="translate(-46,-46) scale(1,1)"><path fill="none" stroke="#000000" d="M 2571 575 L 2571 640" stroke-miterlimit="10" stroke-dasharray="3"/></g><g transform="translate(-46,-46) scale(1,1)"><path fill="none" stroke="#000000" d="M 2568 536 L 2568 376 L 2488 376" stroke-miterlimit="10" stroke-dasharray="3"/></g><g transform="translate(-46,-46) scale(1,1)"><path fill="none" stroke="#000000" d="M 2313 180 L 2312 207" stroke-miterlimit="10"/></g><g transform="translate(-46,-46) scale(1,1)"><path fill="none" stroke="#000000" d="M 2308.169503935111 196.68848702193165 L 2312 207 L 2316.582771008294 197.0000895061236" stroke-miterlimit="10"/></g></g></svg>